<svg id="EXPANDED" xmlns="http://www.w3.org/2000/svg" viewBox="0 0 432 432"><path d="M270.7,328.35c0-4.27-3.1-6.6-7.76-6.6a6.49,6.49,0,0,0-7.77,5.83V328a7.55,7.55,0,0,0,.39,3.11l5.05-.39c-.39-2.72,0-4.66,2.33-4.66a2.6,2.6,0,0,1,2.72,2.33v.39c0,4.66-9.32,8.15-10.49,14.36,0,1.17-.38,1.95-.38,3.11v1.55h15.52v-5.43h-9.7C261.39,338.06,270.7,335.73,270.7,328.35Z"/><path d="M275,343.1h10.48V347h5.44V343.1h2.33v-4.65h-2.33v-16.7h-6.6L275,339.61Zm9.71-14.75v10.87h-5.05Z"/><circle cx="316.9" cy="334.18" r="3.49"/><path d="M231.11,330.68h-.39a3.48,3.48,0,0,0-3.5,3.5,2.77,2.77,0,0,0,1.17,2.33,3.38,3.38,0,0,0,2.33,1.16,3.47,3.47,0,0,0,3.49-3.49C234.21,332.23,233.05,330.68,231.11,330.68Z"/><path d="M274.2,373.38a3.5,3.5,0,1,0,3.49,3.5A3.48,3.48,0,0,0,274.2,373.38Z"/><path d="M271.09,288.76a3.3,3.3,0,0,0-1.16,2.33,3.49,3.49,0,0,0,7,0,2.78,2.78,0,0,0-1.16-2.33,3.35,3.35,0,0,0-2.33-1.17A2.76,2.76,0,0,0,271.09,288.76Z"/><path d="M301.76,362.51a3.53,3.53,0,0,0-.78,4.27c.39,0,.78,0,.78.39a4.06,4.06,0,0,0,5,0,3.52,3.52,0,0,0,0-4.66A4.08,4.08,0,0,0,301.76,362.51Z"/><path d="M246.25,301.18a4.17,4.17,0,0,0-2.72-1.16,2.75,2.75,0,0,0-2.33,1.16,3.2,3.2,0,0,0-.39,4.66l.39.39a3.32,3.32,0,0,0,5.05,0C247.8,304.67,247.8,302.34,246.25,301.18Z"/><path d="M245.86,362.13a3.57,3.57,0,1,0,0,5A3.31,3.31,0,0,0,245.86,362.13Z"/><path d="M301.76,305.84a2.32,2.32,0,0,0,2.33,1.16,3.58,3.58,0,0,0,3.49-3.88,3.47,3.47,0,0,0-3.49-3.49,2.78,2.78,0,0,0-2.33,1.16,3.19,3.19,0,0,0-.39,4.66Z"/><path d="M149,30V145.81H29.56V336.36H59.08v36.93L120,336.36h89.63a64.18,64.18,0,1,0,67.79-64.75V220.5h29l60.93,36.93V220.5h29.51V30Zm-31.51,297.4L68.08,357.31V327.36H38.56V154.81H268.43V271.74a64.28,64.28,0,0,0-58.25,55.62ZM329,335.69a55.19,55.19,0,1,1-55.19-55.19A55.25,55.25,0,0,1,329,335.69ZM387.86,211.5H358.35v29.95L308.94,211.5H277.43v-41H363.5v-9H277.43V145.81H158V39H387.86Z"/><rect x="183.5" y="76.48" width="180" height="9"/><rect x="183.5" y="118.99" width="180" height="9"/><path d="M89.61,216.85A25.15,25.15,0,1,0,114.77,242,25.18,25.18,0,0,0,89.61,216.85Zm0,41.3A16.15,16.15,0,1,1,105.77,242,16.16,16.16,0,0,1,89.61,258.15Z"/><path d="M153.2,216.85A25.15,25.15,0,1,0,178.35,242,25.18,25.18,0,0,0,153.2,216.85Zm0,41.3A16.15,16.15,0,1,1,169.35,242,16.17,16.17,0,0,1,153.2,258.15Z"/><path d="M216.78,267.15A25.15,25.15,0,1,0,191.63,242,25.18,25.18,0,0,0,216.78,267.15Zm0-41.3A16.15,16.15,0,1,1,200.63,242,16.16,16.16,0,0,1,216.78,225.85Z"/></svg>