<svg width="530" height="530" viewBox="0 0 530 530" fill="none" xmlns="http://www.w3.org/2000/svg">
<path d="M42.5033 136.541L265 8.0829L487.497 136.541V393.459L265 521.917L42.5033 393.459V136.541Z" stroke="#191919" stroke-width="14"/>
<path d="M349.805 169.956C349.805 166.66 347.916 165.432 343.33 164.267C340.572 163.589 339.838 163.038 339.838 162.068C339.838 161.098 340.703 160.454 342.5 160.454C344.326 160.454 346.41 161.069 348.173 162.005L348.751 158.485C346.988 157.71 344.841 157.256 342.534 157.256C338.4 157.256 335.962 159.387 335.962 162.36C335.962 165.558 337.759 166.787 342.087 167.855C345.098 168.566 345.934 169.049 345.934 170.341C345.934 171.506 344.778 172.213 342.762 172.213C340.484 172.213 338.08 171.374 336.19 170.175L335.646 173.729C337.346 174.602 340.008 175.411 342.602 175.411C347.274 175.416 349.805 173.378 349.805 169.956Z" fill="black"/>
<path d="M333.486 175.05V157.5H329.236V169.419C327.856 170.77 326.37 171.672 324.864 171.672C323.135 171.672 322.436 170.609 322.436 169.064V157.5H318.186V170.19C318.186 173.441 319.983 175.401 323.412 175.401C325.816 175.401 327.778 174.153 329.478 172.608L330.086 175.045H333.486V175.05Z" fill="black"/>
<path d="M315.675 157.5H311.474V175.05H315.675V157.5Z" fill="black"/>
<path d="M313.586 154.716C314.995 154.716 316.097 153.688 316.097 152.269C316.097 150.85 314.995 149.822 313.586 149.822C312.178 149.822 311.031 150.85 311.031 152.269C311.031 153.688 312.178 154.716 313.586 154.716Z" fill="black"/>
<path d="M304.76 169.195C303.512 170.706 302.162 171.672 300.433 171.672C298.315 171.672 296.746 170.029 296.746 166.587C296.746 162.726 298.572 160.859 301.074 160.859C302.677 160.859 303.604 161.117 304.76 161.629V169.195ZM308.962 175.05V148.969L304.76 149.7V158.158C303.638 157.773 302.23 157.481 300.496 157.481C296.265 157.481 292.516 160.376 292.516 166.845C292.516 172.7 295.595 175.406 299.408 175.406C301.938 175.406 303.702 174.119 305.018 172.637L305.382 175.05H308.962V175.05Z" fill="black"/>
<path d="M286.576 170.253C285.23 171.477 283.69 172.218 282.088 172.218C280.611 172.218 279.717 171.413 279.717 170.16C279.717 168.488 281.034 166.977 286.576 166.363V170.253ZM290.743 175.05V163.111C290.743 158.992 288.499 157.32 283.885 157.32C281.034 157.32 278.882 157.9 276.769 158.733L277.284 162.078C279.241 161.273 281.257 160.693 283.375 160.693C285.395 160.693 286.58 161.4 286.58 163.301V163.847C279.144 164.554 275.555 166.358 275.555 170.57C275.555 173.592 277.638 175.396 280.747 175.396C283.438 175.396 285.332 174.236 286.838 172.788L287.222 175.04H290.743V175.05Z" fill="black"/>
<path d="M274.86 174.441L268.162 165.237C271.207 164.271 273.194 162.131 273.194 158.719C273.194 154.214 269.954 151.65 264.602 151.65H257.229V175.05H261.59V166.031H263.708L270.246 175.274L274.86 174.441ZM268.832 158.962C268.832 161.41 267.006 162.741 264.024 162.741H261.556V155.306H264.281C267.263 155.306 268.832 156.613 268.832 158.962Z" fill="black"/>
<path d="M255.033 175.05L254.519 171.545C254.101 171.642 253.557 171.672 253.013 171.672C251.284 171.672 250.609 170.901 250.609 169.483V160.913H255.038L254.31 157.5H250.609V151.406L246.475 152.142V157.5H243.629V160.913H246.475V170.19C246.475 174.114 248.782 175.338 252.245 175.338C253.528 175.338 254.363 175.211 255.033 175.05Z" fill="black"/>
<path d="M242.74 169.956C242.74 166.66 240.85 165.432 236.265 164.267C233.506 163.589 232.773 163.038 232.773 162.068C232.773 161.098 233.637 160.454 235.434 160.454C237.261 160.454 239.344 161.069 241.108 162.005L241.686 158.485C239.922 157.71 237.776 157.256 235.468 157.256C231.335 157.256 228.897 159.387 228.897 162.36C228.897 165.558 230.694 166.787 235.022 167.855C238.033 168.566 238.868 169.049 238.868 170.341C238.868 171.506 237.712 172.213 235.697 172.213C233.419 172.213 231.078 171.365 229.188 170.17L228.581 173.729C230.281 174.602 232.952 175.411 235.551 175.411C240.224 175.416 242.74 173.378 242.74 169.956Z" fill="black"/>
<path d="M226.628 175.05V157.5H222.378V169.419C220.999 170.77 219.512 171.672 218.007 171.672C216.278 171.672 215.578 170.609 215.578 169.064V157.5H211.328V170.19C211.328 173.441 213.125 175.401 216.554 175.401C218.959 175.401 220.921 174.153 222.621 172.608L223.228 175.045H226.628V175.05Z" fill="black"/>
<path d="M209.385 161.4L208.414 157.256C205.742 157.744 204.13 159.158 202.916 161.151L202.1 157.5H198.942V175.05H203.071V165.056C204.353 163.16 206.534 161.561 209.385 161.4Z" fill="black"/>
<path d="M201.614 155.55L200.643 151.65H180V155.55H187.771V175.05H192.143V155.55H201.614Z" fill="black"/>
<path d="M293.312 137.166L281.029 124.837L282.486 123.375H279.571L278.6 122.4H283.457L285.4 120.45H276.657L275.686 119.475H286.371L287.887 117.954C288.159 117.681 288.314 117.306 288.314 116.92V107.404C288.314 107.014 288.159 106.644 287.887 106.371L286.371 104.85H263.057L261.542 106.371C261.27 106.644 261.114 107.019 261.114 107.404V139.38C261.114 139.813 261.639 140.033 261.945 139.726L268.458 133.188C268.73 132.91 268.886 132.54 268.886 132.15V122.4V106.8H280.543V117.525H273.942C273.811 117.525 273.689 117.579 273.597 117.666L268.886 122.4L284.001 137.571C284.273 137.844 284.647 138 285.031 138H292.967C293.4 138 293.618 137.473 293.312 137.166Z" fill="black"/>
<path d="M283.457 101.925H265.971L264.028 103.875H285.4L283.457 101.925Z" fill="black"/>
<path d="M280.97 99.429C280.693 99.156 280.324 99 279.94 99H269.492C269.104 99 268.735 99.156 268.463 99.429L266.942 100.95H282.485L280.97 99.429Z" fill="black"/>
<path d="M249.884 99.429C249.608 99.156 249.238 99 248.855 99H230.718C230.286 99 230.067 99.5265 230.373 99.8336L231.486 100.95H251.4L249.884 99.429Z" fill="black"/>
<path d="M252.371 101.925H232.457L234.4 103.875H254.314L252.371 101.925Z" fill="black"/>
<path d="M257.228 107.404C257.228 107.014 257.073 106.644 256.801 106.371L255.285 104.85H235.371L236.887 106.371C237.159 106.644 237.533 106.8 237.916 106.8H249.457V132.15C249.457 132.54 249.612 132.91 249.884 133.183L256.398 139.721C256.704 140.028 257.228 139.809 257.228 139.375V107.404Z" fill="black"/>
<path d="M154.098 268V221.2H170.946C174.21 221.2 177.186 221.536 179.874 222.208C182.562 222.88 184.698 224.056 186.282 225.736C187.866 227.416 188.658 229.792 188.658 232.864C188.658 234.88 188.13 236.896 187.074 238.912C186.018 240.88 184.578 242.224 182.754 242.944V243.232C185.01 243.856 186.906 245.056 188.442 246.832C190.026 248.608 190.818 251.056 190.818 254.176C190.818 257.392 189.978 260.032 188.298 262.096C186.618 264.112 184.386 265.6 181.602 266.56C178.818 267.52 175.746 268 172.386 268H154.098ZM166.482 239.488H170.658C172.674 239.488 174.162 239.056 175.122 238.192C176.082 237.328 176.562 236.176 176.562 234.736C176.562 233.296 176.082 232.264 175.122 231.64C174.162 231.016 172.674 230.704 170.658 230.704H166.482V239.488ZM166.482 258.496H171.522C176.322 258.496 178.722 256.768 178.722 253.312C178.722 251.584 178.122 250.36 176.922 249.64C175.77 248.92 173.97 248.56 171.522 248.56H166.482V258.496ZM213.88 268.864C210.376 268.864 207.208 268.12 204.376 266.632C201.592 265.144 199.384 263.008 197.752 260.224C196.12 257.392 195.304 253.984 195.304 250C195.304 246.112 196.12 242.776 197.752 239.992C199.432 237.16 201.592 234.976 204.232 233.44C206.872 231.904 209.656 231.136 212.584 231.136C216.136 231.136 219.064 231.928 221.368 233.512C223.72 235.048 225.448 237.136 226.552 239.776C227.704 242.416 228.28 245.344 228.28 248.56C228.28 249.616 228.208 250.648 228.064 251.656C227.968 252.616 227.872 253.312 227.776 253.744H207.256C207.832 255.904 208.864 257.416 210.352 258.28C211.84 259.096 213.592 259.504 215.608 259.504C217.912 259.504 220.36 258.784 222.952 257.344L226.984 264.688C225.064 266.032 222.904 267.064 220.504 267.784C218.104 268.504 215.896 268.864 213.88 268.864ZM207.112 245.68H217.768C217.768 244.288 217.408 243.088 216.688 242.08C216.016 241.024 214.744 240.496 212.872 240.496C211.528 240.496 210.328 240.904 209.272 241.72C208.216 242.536 207.496 243.856 207.112 245.68ZM246.162 268.864C243.858 268.864 241.41 268.408 238.818 267.496C236.274 266.536 234.066 265.312 232.194 263.824L237.666 256.192C240.93 258.592 243.858 259.792 246.45 259.792C247.746 259.792 248.658 259.624 249.186 259.288C249.762 258.904 250.05 258.352 250.05 257.632C250.05 256.672 249.354 255.928 247.962 255.4C246.57 254.824 244.962 254.176 243.138 253.456C241.746 252.88 240.354 252.16 238.962 251.296C237.618 250.384 236.49 249.232 235.578 247.84C234.666 246.448 234.21 244.768 234.21 242.8C234.21 239.248 235.53 236.416 238.17 234.304C240.81 232.192 244.242 231.136 248.466 231.136C251.442 231.136 253.986 231.64 256.098 232.648C258.258 233.608 260.13 234.688 261.714 235.888L256.242 243.232C254.946 242.272 253.674 241.528 252.426 241C251.178 240.472 250.002 240.208 248.898 240.208C246.786 240.208 245.73 240.88 245.73 242.224C245.73 243.136 246.378 243.856 247.674 244.384C249.018 244.864 250.578 245.44 252.354 246.112C253.794 246.64 255.21 247.336 256.602 248.2C258.042 249.064 259.218 250.192 260.13 251.584C261.09 252.976 261.57 254.752 261.57 256.912C261.57 260.272 260.25 263.104 257.61 265.408C255.018 267.712 251.202 268.864 246.162 268.864ZM281.055 268.864C276.399 268.864 273.015 267.52 270.903 264.832C268.839 262.096 267.807 258.544 267.807 254.176V241.648H263.055V232.432L268.527 232L269.967 222.64H280.191V232H288.399V241.648H280.191V253.96C280.191 255.928 280.623 257.296 281.487 258.064C282.351 258.832 283.359 259.216 284.511 259.216C285.087 259.216 285.639 259.168 286.167 259.072C286.743 258.928 287.247 258.784 287.679 258.64L289.551 267.568C288.639 267.856 287.487 268.144 286.095 268.432C284.703 268.72 283.023 268.864 281.055 268.864ZM330.201 268.864C325.881 268.864 322.089 267.904 318.825 265.984C315.561 264.016 313.017 261.208 311.193 257.56C309.369 253.912 308.457 249.52 308.457 244.384C308.457 239.248 309.369 234.904 311.193 231.352C313.017 227.752 315.561 225.016 318.825 223.144C322.089 221.272 325.881 220.336 330.201 220.336C334.521 220.336 338.313 221.272 341.577 223.144C344.841 225.016 347.385 227.752 349.209 231.352C351.033 234.904 351.945 239.248 351.945 244.384C351.945 249.52 351.033 253.912 349.209 257.56C347.385 261.208 344.841 264.016 341.577 265.984C338.313 267.904 334.521 268.864 330.201 268.864ZM330.201 258.208C333.033 258.208 335.241 256.96 336.825 254.464C338.457 251.968 339.273 248.608 339.273 244.384C339.273 240.112 338.457 236.824 336.825 234.52C335.241 232.168 333.033 230.992 330.201 230.992C327.417 230.992 325.209 232.168 323.577 234.52C321.945 236.824 321.129 240.112 321.129 244.384C321.129 248.608 321.945 251.968 323.577 254.464C325.209 256.96 327.417 258.208 330.201 258.208ZM361.477 268V241.648H356.725V232.432L361.477 232.072V231.568C361.477 228.976 361.909 226.576 362.773 224.368C363.685 222.16 365.173 220.384 367.237 219.04C369.349 217.696 372.181 217.024 375.733 217.024C377.413 217.024 378.901 217.168 380.197 217.456C381.541 217.744 382.597 218.032 383.365 218.32L381.205 227.392C379.909 226.912 378.709 226.672 377.605 226.672C376.453 226.672 375.541 227.008 374.869 227.68C374.197 228.304 373.861 229.456 373.861 231.136V232H379.909V241.648H373.861V268H361.477Z" fill="#191919"/>
<path d="M206 383L211.052 398.547H227.399L214.174 408.156L219.225 423.703L206 414.094L192.775 423.703L197.826 408.156L184.601 398.547H200.948L206 383Z" fill="#191919"/>
<path d="M265 405L270.052 420.547H286.399L273.174 430.156L278.225 445.703L265 436.094L251.775 445.703L256.826 430.156L243.601 420.547H259.948L265 405Z" fill="#191919"/>
<path d="M147 357L152.052 372.547H168.399L155.174 382.156L160.225 397.703L147 388.094L133.775 397.703L138.826 382.156L125.601 372.547H141.948L147 357Z" fill="#191919"/>
<path d="M324 383L329.052 398.547H345.399L332.174 408.156L337.225 423.703L324 414.094L310.775 423.703L315.826 408.156L302.601 398.547H318.948L324 383Z" fill="#191919"/>
<path d="M383 357L388.052 372.547H404.399L391.174 382.156L396.225 397.703L383 388.094L369.775 397.703L374.826 382.156L361.601 372.547H377.948L383 357Z" fill="#191919"/>
<path d="M213.057 338V333.968C215.649 331.504 217.937 329.28 219.921 327.296C221.937 325.28 223.505 323.44 224.625 321.776C225.745 320.08 226.305 318.512 226.305 317.072C226.305 315.568 225.905 314.432 225.105 313.664C224.337 312.864 223.297 312.464 221.985 312.464C220.897 312.464 219.905 312.784 219.009 313.424C218.145 314.032 217.329 314.752 216.561 315.584L212.721 311.792C214.225 310.192 215.761 308.992 217.329 308.192C218.897 307.36 220.769 306.944 222.945 306.944C224.961 306.944 226.721 307.344 228.225 308.144C229.729 308.944 230.897 310.08 231.729 311.552C232.593 312.992 233.025 314.688 233.025 316.64C233.025 318.336 232.545 320.08 231.585 321.872C230.657 323.632 229.457 325.408 227.985 327.2C226.513 328.96 224.945 330.704 223.281 332.432C224.049 332.336 224.913 332.256 225.873 332.192C226.833 332.096 227.665 332.048 228.369 332.048H234.513V338H213.057ZM251.313 338.576C248.049 338.576 245.409 337.216 243.393 334.496C241.409 331.776 240.417 327.824 240.417 322.64C240.417 317.456 241.409 313.552 243.393 310.928C245.409 308.272 248.049 306.944 251.313 306.944C254.577 306.944 257.201 308.272 259.185 310.928C261.201 313.552 262.209 317.456 262.209 322.64C262.209 327.824 261.201 331.776 259.185 334.496C257.201 337.216 254.577 338.576 251.313 338.576ZM251.313 333.104C252.113 333.104 252.833 332.816 253.473 332.24C254.113 331.632 254.609 330.576 254.961 329.072C255.345 327.568 255.537 325.424 255.537 322.64C255.537 319.856 255.345 317.728 254.961 316.256C254.609 314.784 254.113 313.776 253.473 313.232C252.833 312.688 252.113 312.416 251.313 312.416C250.545 312.416 249.841 312.688 249.201 313.232C248.561 313.776 248.049 314.784 247.665 316.256C247.281 317.728 247.089 319.856 247.089 322.64C247.089 325.424 247.281 327.568 247.665 329.072C248.049 330.576 248.561 331.632 249.201 332.24C249.841 332.816 250.545 333.104 251.313 333.104ZM267.776 338V333.968C270.368 331.504 272.656 329.28 274.64 327.296C276.656 325.28 278.224 323.44 279.344 321.776C280.464 320.08 281.024 318.512 281.024 317.072C281.024 315.568 280.624 314.432 279.824 313.664C279.056 312.864 278.016 312.464 276.704 312.464C275.616 312.464 274.624 312.784 273.728 313.424C272.864 314.032 272.048 314.752 271.28 315.584L267.44 311.792C268.944 310.192 270.48 308.992 272.048 308.192C273.616 307.36 275.488 306.944 277.664 306.944C279.68 306.944 281.44 307.344 282.944 308.144C284.448 308.944 285.616 310.08 286.448 311.552C287.312 312.992 287.744 314.688 287.744 316.64C287.744 318.336 287.264 320.08 286.304 321.872C285.376 323.632 284.176 325.408 282.704 327.2C281.232 328.96 279.664 330.704 278 332.432C278.768 332.336 279.632 332.256 280.592 332.192C281.552 332.096 282.384 332.048 283.088 332.048H289.232V338H267.776ZM305.023 338.576C302.559 338.576 300.447 338.176 298.687 337.376C296.959 336.576 295.535 335.536 294.415 334.256L297.679 329.792C298.607 330.688 299.631 331.424 300.751 332C301.871 332.576 303.071 332.864 304.351 332.864C305.855 332.864 307.055 332.56 307.951 331.952C308.847 331.312 309.295 330.416 309.295 329.264C309.295 328.368 309.071 327.6 308.623 326.96C308.175 326.288 307.359 325.776 306.175 325.424C304.991 325.072 303.295 324.896 301.087 324.896V319.904C303.839 319.904 305.727 319.536 306.751 318.8C307.775 318.032 308.287 317.04 308.287 315.824C308.287 314.768 307.967 313.952 307.327 313.376C306.687 312.768 305.759 312.464 304.543 312.464C303.455 312.464 302.463 312.704 301.567 313.184C300.703 313.664 299.791 314.32 298.831 315.152L295.279 310.832C296.687 309.616 298.175 308.672 299.743 308C301.311 307.296 303.023 306.944 304.879 306.944C308.015 306.944 310.543 307.68 312.463 309.152C314.415 310.592 315.391 312.64 315.391 315.296C315.391 316.864 314.943 318.208 314.047 319.328C313.183 320.448 311.935 321.36 310.303 322.064V322.256C312.063 322.768 313.503 323.648 314.623 324.896C315.775 326.112 316.351 327.712 316.351 329.696C316.351 331.584 315.823 333.2 314.767 334.544C313.743 335.856 312.367 336.864 310.639 337.568C308.943 338.24 307.071 338.576 305.023 338.576Z" fill="#191919"/>
<line x1="104" y1="323" x2="180" y2="323" stroke="#191919" stroke-width="4"/>
<line x1="350" y1="323" x2="426" y2="323" stroke="#191919" stroke-width="4"/>
</svg>
