<svg width="530" height="530" viewBox="0 0 530 530" fill="none" xmlns="http://www.w3.org/2000/svg">
<path d="M42.5033 136.541L265 8.0829L487.497 136.541V393.459L265 521.917L42.5033 393.459V136.541Z" stroke="#191919" stroke-width="14"/>
<path d="M349.805 143.956C349.805 140.66 347.916 139.432 343.33 138.267C340.572 137.589 339.838 137.038 339.838 136.068C339.838 135.098 340.703 134.454 342.5 134.454C344.326 134.454 346.41 135.069 348.173 136.005L348.751 132.485C346.988 131.71 344.841 131.256 342.534 131.256C338.4 131.256 335.962 133.387 335.962 136.36C335.962 139.558 337.759 140.787 342.087 141.855C345.098 142.566 345.934 143.049 345.934 144.341C345.934 145.506 344.778 146.213 342.762 146.213C340.484 146.213 338.08 145.374 336.19 144.175L335.646 147.729C337.346 148.602 340.008 149.411 342.602 149.411C347.274 149.416 349.805 147.378 349.805 143.956Z" fill="black"/>
<path d="M333.486 149.05V131.5H329.236V143.419C327.856 144.77 326.37 145.672 324.864 145.672C323.135 145.672 322.436 144.609 322.436 143.064V131.5H318.186V144.19C318.186 147.441 319.983 149.401 323.412 149.401C325.816 149.401 327.778 148.153 329.478 146.608L330.086 149.045H333.486V149.05Z" fill="black"/>
<path d="M315.674 131.5H311.473V149.05H315.674V131.5Z" fill="black"/>
<path d="M313.586 128.716C314.995 128.716 316.097 127.688 316.097 126.269C316.097 124.851 314.995 123.822 313.586 123.822C312.178 123.822 311.031 124.851 311.031 126.269C311.031 127.688 312.178 128.716 313.586 128.716Z" fill="black"/>
<path d="M304.76 143.195C303.512 144.706 302.162 145.672 300.433 145.672C298.315 145.672 296.746 144.029 296.746 140.587C296.746 136.726 298.572 134.859 301.074 134.859C302.677 134.859 303.604 135.117 304.76 135.629V143.195ZM308.962 149.05V122.969L304.76 123.7V132.158C303.638 131.773 302.23 131.481 300.496 131.481C296.265 131.481 292.516 134.376 292.516 140.845C292.516 146.7 295.595 149.406 299.408 149.406C301.938 149.406 303.702 148.119 305.018 146.637L305.382 149.05H308.962V149.05Z" fill="black"/>
<path d="M286.576 144.253C285.23 145.477 283.69 146.218 282.088 146.218C280.611 146.218 279.717 145.413 279.717 144.16C279.717 142.488 281.034 140.977 286.576 140.363V144.253ZM290.743 149.05V137.111C290.743 132.992 288.499 131.32 283.885 131.32C281.034 131.32 278.882 131.9 276.769 132.733L277.284 136.078C279.241 135.273 281.257 134.693 283.375 134.693C285.395 134.693 286.58 135.4 286.58 137.301V137.847C279.144 138.554 275.555 140.358 275.555 144.57C275.555 147.592 277.638 149.396 280.747 149.396C283.438 149.396 285.332 148.236 286.838 146.788L287.222 149.04H290.743V149.05Z" fill="black"/>
<path d="M274.86 148.441L268.162 139.237C271.207 138.271 273.194 136.131 273.194 132.719C273.194 128.214 269.954 125.65 264.602 125.65H257.229V149.05H261.59V140.031H263.708L270.246 149.274L274.86 148.441ZM268.832 132.963C268.832 135.41 267.006 136.741 264.024 136.741H261.556V129.306H264.281C267.263 129.306 268.832 130.613 268.832 132.963Z" fill="black"/>
<path d="M255.033 149.05L254.519 145.545C254.101 145.642 253.557 145.672 253.013 145.672C251.284 145.672 250.609 144.901 250.609 143.483V134.913H255.038L254.31 131.5H250.609V125.406L246.475 126.142V131.5H243.629V134.913H246.475V144.19C246.475 148.114 248.782 149.338 252.245 149.338C253.528 149.338 254.363 149.211 255.033 149.05Z" fill="black"/>
<path d="M242.741 143.956C242.741 140.66 240.851 139.432 236.266 138.267C233.507 137.589 232.774 137.038 232.774 136.068C232.774 135.098 233.638 134.454 235.435 134.454C237.262 134.454 239.345 135.069 241.109 136.005L241.687 132.485C239.923 131.71 237.777 131.256 235.469 131.256C231.336 131.256 228.898 133.387 228.898 136.36C228.898 139.558 230.695 140.787 235.023 141.855C238.034 142.566 238.869 143.049 238.869 144.341C238.869 145.506 237.713 146.213 235.698 146.213C233.42 146.213 231.079 145.365 229.189 144.17L228.582 147.729C230.282 148.602 232.953 149.411 235.552 149.411C240.225 149.416 242.741 147.378 242.741 143.956Z" fill="black"/>
<path d="M226.628 149.05V131.5H222.378V143.419C220.999 144.77 219.512 145.672 218.007 145.672C216.278 145.672 215.578 144.609 215.578 143.064V131.5H211.328V144.19C211.328 147.441 213.125 149.401 216.554 149.401C218.959 149.401 220.921 148.153 222.621 146.608L223.228 149.045H226.628V149.05Z" fill="black"/>
<path d="M209.386 135.4L208.415 131.256C205.743 131.744 204.131 133.158 202.917 135.151L202.101 131.5H198.943V149.05H203.072V139.056C204.354 137.16 206.535 135.561 209.386 135.4Z" fill="black"/>
<path d="M201.614 129.55L200.643 125.65H180V129.55H187.771V149.05H192.143V129.55H201.614Z" fill="black"/>
<path d="M293.311 111.166L281.028 98.8375L282.485 97.375H279.57L278.599 96.4H283.456L285.399 94.45H276.656L275.685 93.475H286.37L287.886 91.954C288.158 91.681 288.313 91.3056 288.313 90.9205V81.4045C288.313 81.0145 288.158 80.644 287.886 80.371L286.37 78.85H263.056L261.541 80.371C261.269 80.644 261.113 81.0194 261.113 81.4045V113.38C261.113 113.813 261.638 114.033 261.944 113.726L268.457 107.188C268.729 106.91 268.885 106.54 268.885 106.15V96.4V80.8H280.542V91.525H273.941C273.81 91.525 273.688 91.5786 273.596 91.6664L268.885 96.4L284 111.571C284.272 111.844 284.646 112 285.03 112H292.966C293.399 112 293.617 111.473 293.311 111.166Z" fill="black"/>
<path d="M283.456 75.925H265.97L264.027 77.875H285.399L283.456 75.925Z" fill="black"/>
<path d="M280.969 73.429C280.692 73.156 280.323 73 279.939 73H269.491C269.103 73 268.734 73.156 268.462 73.429L266.941 74.95H282.484L280.969 73.429Z" fill="black"/>
<path d="M249.884 73.429C249.608 73.156 249.238 73 248.855 73H230.718C230.286 73 230.067 73.5265 230.373 73.8336L231.486 74.95H251.4L249.884 73.429Z" fill="black"/>
<path d="M252.371 75.925H232.457L234.4 77.875H254.314L252.371 75.925Z" fill="black"/>
<path d="M257.228 81.4045C257.228 81.0145 257.073 80.644 256.801 80.371L255.285 78.85H235.371L236.887 80.371C237.159 80.644 237.533 80.8 237.916 80.8H249.457V106.15C249.457 106.54 249.612 106.91 249.884 107.183L256.398 113.721C256.704 114.028 257.228 113.809 257.228 113.375V81.4045Z" fill="black"/>
<path d="M200.108 239V197.4H215.084C217.985 197.4 220.631 197.699 223.02 198.296C225.409 198.893 227.308 199.939 228.716 201.432C230.124 202.925 230.828 205.037 230.828 207.768C230.828 209.56 230.359 211.352 229.42 213.144C228.481 214.893 227.201 216.088 225.58 216.728V216.984C227.585 217.539 229.271 218.605 230.636 220.184C232.044 221.763 232.748 223.939 232.748 226.712C232.748 229.571 232.001 231.917 230.508 233.752C229.015 235.544 227.031 236.867 224.556 237.72C222.081 238.573 219.351 239 216.364 239H200.108ZM211.116 213.656H214.828C216.62 213.656 217.943 213.272 218.796 212.504C219.649 211.736 220.076 210.712 220.076 209.432C220.076 208.152 219.649 207.235 218.796 206.68C217.943 206.125 216.62 205.848 214.828 205.848H211.116V213.656ZM211.116 230.552H215.596C219.863 230.552 221.996 229.016 221.996 225.944C221.996 224.408 221.463 223.32 220.396 222.68C219.372 222.04 217.772 221.72 215.596 221.72H211.116V230.552ZM253.248 239.768C250.133 239.768 247.317 239.107 244.8 237.784C242.325 236.461 240.362 234.563 238.911 232.088C237.461 229.571 236.736 226.541 236.736 223C236.736 219.544 237.461 216.579 238.911 214.104C240.405 211.587 242.325 209.645 244.672 208.28C247.018 206.915 249.493 206.232 252.096 206.232C255.253 206.232 257.856 206.936 259.904 208.344C261.994 209.709 263.53 211.565 264.512 213.912C265.536 216.259 266.048 218.861 266.048 221.72C266.048 222.659 265.984 223.576 265.856 224.472C265.77 225.325 265.685 225.944 265.6 226.328H247.36C247.872 228.248 248.789 229.592 250.112 230.36C251.434 231.085 252.992 231.448 254.784 231.448C256.832 231.448 259.008 230.808 261.312 229.528L264.896 236.056C263.189 237.251 261.269 238.168 259.136 238.808C257.002 239.448 255.04 239.768 253.248 239.768ZM247.232 219.16H256.704C256.704 217.923 256.384 216.856 255.744 215.96C255.146 215.021 254.016 214.552 252.352 214.552C251.157 214.552 250.09 214.915 249.152 215.64C248.213 216.365 247.573 217.539 247.232 219.16ZM281.943 239.768C279.895 239.768 277.719 239.363 275.415 238.552C273.154 237.699 271.191 236.611 269.527 235.288L274.391 228.504C277.292 230.637 279.895 231.704 282.199 231.704C283.351 231.704 284.162 231.555 284.631 231.256C285.143 230.915 285.399 230.424 285.399 229.784C285.399 228.931 284.78 228.269 283.543 227.8C282.306 227.288 280.876 226.712 279.255 226.072C278.018 225.56 276.78 224.92 275.543 224.152C274.348 223.341 273.346 222.317 272.535 221.08C271.724 219.843 271.319 218.349 271.319 216.6C271.319 213.443 272.492 210.925 274.839 209.048C277.186 207.171 280.236 206.232 283.991 206.232C286.636 206.232 288.898 206.68 290.775 207.576C292.695 208.429 294.359 209.389 295.767 210.456L290.903 216.984C289.751 216.131 288.62 215.469 287.511 215C286.402 214.531 285.356 214.296 284.375 214.296C282.498 214.296 281.559 214.893 281.559 216.088C281.559 216.899 282.135 217.539 283.287 218.008C284.482 218.435 285.868 218.947 287.447 219.544C288.727 220.013 289.986 220.632 291.223 221.4C292.503 222.168 293.548 223.171 294.359 224.408C295.212 225.645 295.639 227.224 295.639 229.144C295.639 232.131 294.466 234.648 292.119 236.696C289.815 238.744 286.423 239.768 281.943 239.768ZM312.958 239.768C308.82 239.768 305.812 238.573 303.935 236.184C302.1 233.752 301.183 230.595 301.183 226.712V215.576H296.959V207.384L301.823 207L303.103 198.68H312.191V207H319.487V215.576H312.191V226.52C312.191 228.269 312.575 229.485 313.343 230.168C314.111 230.851 315.007 231.192 316.031 231.192C316.543 231.192 317.033 231.149 317.503 231.064C318.015 230.936 318.463 230.808 318.847 230.68L320.511 238.616C319.7 238.872 318.676 239.128 317.439 239.384C316.201 239.64 314.708 239.768 312.958 239.768ZM104.983 303V261.4H132.119V270.616H115.991V278.552H129.815V287.768H115.991V303H104.983ZM151.998 303.768C148.883 303.768 146.067 303.107 143.55 301.784C141.075 300.461 139.112 298.563 137.661 296.088C136.211 293.571 135.486 290.541 135.486 287C135.486 283.544 136.211 280.579 137.661 278.104C139.155 275.587 141.075 273.645 143.422 272.28C145.768 270.915 148.243 270.232 150.846 270.232C154.003 270.232 156.606 270.936 158.654 272.344C160.744 273.709 162.28 275.565 163.262 277.912C164.286 280.259 164.798 282.861 164.798 285.72C164.798 286.659 164.734 287.576 164.606 288.472C164.52 289.325 164.435 289.944 164.35 290.328H146.11C146.622 292.248 147.539 293.592 148.862 294.36C150.184 295.085 151.742 295.448 153.534 295.448C155.582 295.448 157.758 294.808 160.062 293.528L163.646 300.056C161.939 301.251 160.019 302.168 157.886 302.808C155.752 303.448 153.79 303.768 151.998 303.768ZM145.982 283.16H155.454C155.454 281.923 155.134 280.856 154.494 279.96C153.896 279.021 152.766 278.552 151.102 278.552C149.907 278.552 148.84 278.915 147.902 279.64C146.963 280.365 146.323 281.539 145.982 283.16ZM178.532 303.768C176.527 303.768 174.799 303.32 173.348 302.424C171.94 301.485 170.852 300.269 170.084 298.776C169.316 297.283 168.932 295.661 168.932 293.912C168.932 290.584 170.297 287.981 173.028 286.104C175.759 284.184 180.196 282.904 186.34 282.264C186.084 280.045 184.591 278.936 181.86 278.936C180.708 278.936 179.492 279.171 178.212 279.64C176.932 280.067 175.46 280.728 173.796 281.624L169.956 274.456C172.217 273.091 174.5 272.045 176.804 271.32C179.151 270.595 181.561 270.232 184.036 270.232C188.217 270.232 191.481 271.427 193.828 273.816C196.175 276.163 197.348 279.96 197.348 285.208V303H188.388L187.62 299.928H187.364C186.084 301.08 184.719 302.019 183.268 302.744C181.86 303.427 180.281 303.768 178.532 303.768ZM182.372 295.32C183.268 295.32 184.015 295.128 184.612 294.744C185.209 294.317 185.785 293.784 186.34 293.144V288.792C183.737 289.176 181.924 289.752 180.9 290.52C179.919 291.288 179.428 292.12 179.428 293.016C179.428 294.552 180.409 295.32 182.372 295.32ZM216.458 303.768C212.32 303.768 209.312 302.573 207.435 300.184C205.6 297.752 204.683 294.595 204.683 290.712V279.576H200.459V271.384L205.323 271L206.603 262.68H215.691V271H222.987V279.576H215.691V290.52C215.691 292.269 216.075 293.485 216.843 294.168C217.611 294.851 218.507 295.192 219.531 295.192C220.043 295.192 220.533 295.149 221.003 295.064C221.515 294.936 221.963 294.808 222.347 294.68L224.011 302.616C223.2 302.872 222.176 303.128 220.939 303.384C219.701 303.64 218.208 303.768 216.458 303.768ZM238.628 303.768C235.129 303.768 232.59 302.595 231.012 300.248C229.433 297.859 228.644 294.68 228.644 290.712V271H239.652V289.304C239.652 291.352 239.908 292.717 240.42 293.4C240.974 294.083 241.785 294.424 242.852 294.424C243.876 294.424 244.729 294.211 245.412 293.784C246.094 293.357 246.777 292.632 247.46 291.608V271H258.468V303H249.508L248.74 298.776H248.484C247.204 300.312 245.774 301.528 244.196 302.424C242.66 303.32 240.804 303.768 238.628 303.768ZM265.9 303V271H274.86L275.628 276.504H275.884C277.078 274.328 278.486 272.749 280.108 271.768C281.772 270.744 283.393 270.232 284.972 270.232C285.953 270.232 286.742 270.296 287.34 270.424C287.98 270.509 288.513 270.659 288.94 270.872L287.148 280.344C286.593 280.216 286.038 280.109 285.484 280.024C284.929 279.896 284.289 279.832 283.564 279.832C282.412 279.832 281.196 280.237 279.916 281.048C278.678 281.816 277.676 283.203 276.908 285.208V303H265.9ZM306.873 303.768C303.758 303.768 300.942 303.107 298.425 301.784C295.95 300.461 293.987 298.563 292.536 296.088C291.086 293.571 290.361 290.541 290.361 287C290.361 283.544 291.086 280.579 292.536 278.104C294.03 275.587 295.95 273.645 298.297 272.28C300.643 270.915 303.118 270.232 305.721 270.232C308.878 270.232 311.481 270.936 313.529 272.344C315.619 273.709 317.155 275.565 318.137 277.912C319.161 280.259 319.673 282.861 319.673 285.72C319.673 286.659 319.609 287.576 319.481 288.472C319.395 289.325 319.31 289.944 319.225 290.328H300.985C301.497 292.248 302.414 293.592 303.737 294.36C305.059 295.085 306.617 295.448 308.409 295.448C310.457 295.448 312.633 294.808 314.937 293.528L318.521 300.056C316.814 301.251 314.894 302.168 312.761 302.808C310.627 303.448 308.665 303.768 306.873 303.768ZM300.857 283.16H310.329C310.329 281.923 310.009 280.856 309.369 279.96C308.771 279.021 307.641 278.552 305.977 278.552C304.782 278.552 303.715 278.915 302.777 279.64C301.838 280.365 301.198 281.539 300.857 283.16ZM352.605 303.768C350.002 303.768 347.293 303.277 344.477 302.296C341.661 301.315 339.122 299.821 336.861 297.816L343.133 290.264C344.626 291.459 346.226 292.44 347.933 293.208C349.682 293.933 351.325 294.296 352.861 294.296C354.525 294.296 355.719 294.04 356.445 293.528C357.213 293.016 357.597 292.291 357.597 291.352C357.597 290.371 357.085 289.624 356.061 289.112C355.079 288.6 353.714 288.003 351.965 287.32L346.781 285.144C344.562 284.248 342.599 282.84 340.893 280.92C339.229 279 338.397 276.547 338.397 273.56C338.397 271.171 339.058 269.016 340.381 267.096C341.703 265.133 343.517 263.576 345.821 262.424C348.167 261.229 350.855 260.632 353.885 260.632C356.274 260.632 358.685 261.101 361.117 262.04C363.591 262.936 365.789 264.323 367.708 266.2L362.205 273.112C360.797 272.131 359.431 271.384 358.109 270.872C356.829 270.36 355.421 270.104 353.885 270.104C352.562 270.104 351.495 270.339 350.685 270.808C349.917 271.277 349.533 271.981 349.533 272.92C349.533 273.901 350.087 274.669 351.197 275.224C352.306 275.736 353.799 276.355 355.677 277.08L360.733 279.064C363.335 280.088 365.341 281.517 366.749 283.352C368.157 285.187 368.861 287.555 368.861 290.456C368.861 292.803 368.221 295 366.941 297.048C365.703 299.053 363.869 300.675 361.437 301.912C359.005 303.149 356.061 303.768 352.605 303.768ZM389.498 303.768C386.383 303.768 383.567 303.107 381.05 301.784C378.575 300.461 376.612 298.563 375.161 296.088C373.711 293.571 372.986 290.541 372.986 287C372.986 283.544 373.711 280.579 375.161 278.104C376.655 275.587 378.575 273.645 380.922 272.28C383.268 270.915 385.743 270.232 388.346 270.232C391.503 270.232 394.106 270.936 396.154 272.344C398.244 273.709 399.78 275.565 400.762 277.912C401.786 280.259 402.298 282.861 402.298 285.72C402.298 286.659 402.234 287.576 402.106 288.472C402.02 289.325 401.935 289.944 401.85 290.328H383.61C384.122 292.248 385.039 293.592 386.362 294.36C387.684 295.085 389.242 295.448 391.034 295.448C393.082 295.448 395.258 294.808 397.562 293.528L401.146 300.056C399.439 301.251 397.519 302.168 395.386 302.808C393.252 303.448 391.29 303.768 389.498 303.768ZM383.482 283.16H392.954C392.954 281.923 392.634 280.856 391.994 279.96C391.396 279.021 390.266 278.552 388.602 278.552C387.407 278.552 386.34 278.915 385.402 279.64C384.463 280.365 383.823 281.539 383.482 283.16ZM420.896 303.768C416.757 303.768 413.749 302.573 411.872 300.184C410.037 297.752 409.12 294.595 409.12 290.712V279.576H404.896V271.384L409.76 271L411.04 262.68H420.128V271H427.424V279.576H420.128V290.52C420.128 292.269 420.512 293.485 421.28 294.168C422.048 294.851 422.944 295.192 423.968 295.192C424.48 295.192 424.971 295.149 425.44 295.064C425.952 294.936 426.4 294.808 426.784 294.68L428.448 302.616C427.637 302.872 426.613 303.128 425.376 303.384C424.139 303.64 422.645 303.768 420.896 303.768Z" fill="#191919"/>
<path d="M166.367 366L162.495 345.136H167.327L168.767 354.896C168.895 355.984 169.034 357.083 169.183 358.192C169.332 359.28 169.471 360.379 169.599 361.488H169.727C169.94 360.379 170.143 359.28 170.335 358.192C170.548 357.083 170.762 355.984 170.975 354.896L173.215 345.136H177.215L179.455 354.896C179.668 355.941 179.871 357.019 180.063 358.128C180.276 359.237 180.49 360.357 180.703 361.488H180.831C180.98 360.357 181.119 359.248 181.247 358.16C181.396 357.051 181.546 355.963 181.695 354.896L183.135 345.136H187.647L183.935 366H178.015L175.967 356.528C175.796 355.717 175.636 354.907 175.487 354.096C175.359 353.264 175.242 352.464 175.135 351.696H175.007C174.879 352.464 174.74 353.264 174.591 354.096C174.463 354.907 174.314 355.717 174.143 356.528L172.191 366H166.367ZM192.542 366V345.136H197.246V366H192.542ZM204.167 366V345.136H208.999L214.439 355.504L216.487 360.112H216.615C216.53 359.003 216.412 357.765 216.263 356.4C216.114 355.035 216.039 353.733 216.039 352.496V345.136H220.519V366H215.687L210.247 355.6L208.199 351.056H208.071C208.178 352.208 208.295 353.445 208.423 354.768C208.572 356.091 208.647 357.371 208.647 358.608V366H204.167ZM231.512 366V349.104H225.784V345.136H241.976V349.104H236.248V366H231.512ZM247.23 366V345.136H260.286V349.104H251.934V353.296H259.038V357.232H251.934V362.032H260.606V366H247.23ZM266.761 366V345.136H274.281C275.753 345.136 277.097 345.339 278.313 345.744C279.529 346.128 280.5 346.789 281.225 347.728C281.95 348.667 282.313 349.968 282.313 351.632C282.313 353.168 281.972 354.437 281.289 355.44C280.628 356.421 279.732 357.157 278.601 357.648L283.337 366H278.057L274.057 358.48H271.465V366H266.761ZM271.465 354.736H273.897C275.134 354.736 276.073 354.48 276.713 353.968C277.374 353.435 277.705 352.656 277.705 351.632C277.705 350.608 277.374 349.893 276.713 349.488C276.073 349.083 275.134 348.88 273.897 348.88H271.465V354.736ZM295.512 366V363.312C297.24 361.669 298.765 360.187 300.088 358.864C301.432 357.52 302.477 356.293 303.224 355.184C303.971 354.053 304.344 353.008 304.344 352.048C304.344 351.045 304.077 350.288 303.544 349.776C303.032 349.243 302.339 348.976 301.464 348.976C300.739 348.976 300.077 349.189 299.48 349.616C298.904 350.021 298.36 350.501 297.848 351.056L295.288 348.528C296.291 347.461 297.315 346.661 298.36 346.128C299.405 345.573 300.653 345.296 302.104 345.296C303.448 345.296 304.621 345.563 305.624 346.096C306.627 346.629 307.405 347.387 307.96 348.368C308.536 349.328 308.824 350.459 308.824 351.76C308.824 352.891 308.504 354.053 307.864 355.248C307.245 356.421 306.445 357.605 305.464 358.8C304.483 359.973 303.437 361.136 302.328 362.288C302.84 362.224 303.416 362.171 304.056 362.128C304.696 362.064 305.251 362.032 305.72 362.032H309.816V366H295.512ZM321.682 366.384C319.506 366.384 317.746 365.477 316.402 363.664C315.08 361.851 314.418 359.216 314.418 355.76C314.418 352.304 315.08 349.701 316.402 347.952C317.746 346.181 319.506 345.296 321.682 345.296C323.858 345.296 325.608 346.181 326.93 347.952C328.274 349.701 328.946 352.304 328.946 355.76C328.946 359.216 328.274 361.851 326.93 363.664C325.608 365.477 323.858 366.384 321.682 366.384ZM321.682 362.736C322.216 362.736 322.696 362.544 323.122 362.16C323.549 361.755 323.88 361.051 324.114 360.048C324.37 359.045 324.498 357.616 324.498 355.76C324.498 353.904 324.37 352.485 324.114 351.504C323.88 350.523 323.549 349.851 323.122 349.488C322.696 349.125 322.216 348.944 321.682 348.944C321.17 348.944 320.701 349.125 320.274 349.488C319.848 349.851 319.506 350.523 319.25 351.504C318.994 352.485 318.866 353.904 318.866 355.76C318.866 357.616 318.994 359.045 319.25 360.048C319.506 361.051 319.848 361.755 320.274 362.16C320.701 362.544 321.17 362.736 321.682 362.736ZM333.325 366V363.312C335.053 361.669 336.578 360.187 337.901 358.864C339.245 357.52 340.29 356.293 341.037 355.184C341.783 354.053 342.157 353.008 342.157 352.048C342.157 351.045 341.89 350.288 341.357 349.776C340.845 349.243 340.151 348.976 339.277 348.976C338.551 348.976 337.89 349.189 337.293 349.616C336.717 350.021 336.173 350.501 335.661 351.056L333.101 348.528C334.103 347.461 335.127 346.661 336.173 346.128C337.218 345.573 338.466 345.296 339.917 345.296C341.261 345.296 342.434 345.563 343.437 346.096C344.439 346.629 345.218 347.387 345.773 348.368C346.349 349.328 346.637 350.459 346.637 351.76C346.637 352.891 346.317 354.053 345.677 355.248C345.058 356.421 344.258 357.605 343.277 358.8C342.295 359.973 341.25 361.136 340.141 362.288C340.653 362.224 341.229 362.171 341.869 362.128C342.509 362.064 343.063 362.032 343.533 362.032H347.629V366H333.325ZM358.823 366.384C357.18 366.384 355.772 366.117 354.599 365.584C353.447 365.051 352.498 364.357 351.751 363.504L353.927 360.528C354.546 361.125 355.228 361.616 355.975 362C356.722 362.384 357.522 362.576 358.375 362.576C359.378 362.576 360.178 362.373 360.775 361.968C361.372 361.541 361.671 360.944 361.671 360.176C361.671 359.579 361.522 359.067 361.223 358.64C360.924 358.192 360.38 357.851 359.591 357.616C358.802 357.381 357.671 357.264 356.199 357.264V353.936C358.034 353.936 359.292 353.691 359.975 353.2C360.658 352.688 360.999 352.027 360.999 351.216C360.999 350.512 360.786 349.968 360.359 349.584C359.932 349.179 359.314 348.976 358.503 348.976C357.778 348.976 357.116 349.136 356.519 349.456C355.943 349.776 355.335 350.213 354.695 350.768L352.327 347.888C353.266 347.077 354.258 346.448 355.303 346C356.348 345.531 357.49 345.296 358.727 345.296C360.818 345.296 362.503 345.787 363.783 346.768C365.084 347.728 365.735 349.093 365.735 350.864C365.735 351.909 365.436 352.805 364.839 353.552C364.263 354.299 363.431 354.907 362.343 355.376V355.504C363.516 355.845 364.476 356.432 365.223 357.264C365.991 358.075 366.375 359.141 366.375 360.464C366.375 361.723 366.023 362.8 365.319 363.696C364.636 364.571 363.719 365.243 362.567 365.712C361.436 366.16 360.188 366.384 358.823 366.384Z" fill="#191919"/>
<line x1="104" y1="355" x2="138" y2="355" stroke="#191919" stroke-width="4"/>
<line x1="392" y1="355" x2="426" y2="355" stroke="#191919" stroke-width="4"/>
<path d="M220.278 418.326L223.631 428.648L223.744 428.993H224.107H234.959L226.18 435.372L225.886 435.586L225.998 435.931L229.352 446.252L220.572 439.873L220.278 439.66L219.984 439.873L211.204 446.252L214.558 435.931L214.67 435.586L214.376 435.372L205.596 428.993H216.449H216.812L216.924 428.648L220.278 418.326Z" fill="#191919" stroke="#191919"/>
<path d="M265 435.002L268.354 445.324L268.466 445.669H268.83H279.682L270.902 452.048L270.608 452.262L270.721 452.607L274.074 462.928L265.294 456.549L265 456.336L264.707 456.549L255.927 462.928L259.28 452.607L259.393 452.262L259.099 452.048L250.319 445.669H261.171H261.535L261.647 445.324L265 435.002Z" fill="#191919" stroke="#191919"/>
<path d="M175.555 398.618L178.909 408.939L179.021 409.285H179.384H190.237L181.457 415.664L181.163 415.877L181.275 416.223L184.629 426.544L175.849 420.165L175.555 419.952L175.261 420.165L166.481 426.544L169.835 416.223L169.947 415.877L169.653 415.664L160.874 409.285H171.726H172.089L172.202 408.939L175.555 398.618Z" fill="#191919" stroke="#191919"/>
<path d="M309.723 418.326L313.077 428.648L313.189 428.993H313.552H324.405L315.625 435.372L315.331 435.586L315.443 435.931L318.797 446.252L310.017 439.873L309.723 439.66L309.429 439.873L300.649 446.252L304.003 435.931L304.115 435.586L303.821 435.372L295.042 428.993H305.894H306.257L306.37 428.648L309.723 418.326Z" fill="#191919" stroke="#191919"/>
<path d="M354.446 398.618L357.799 408.939L357.912 409.285H358.275H369.127L360.348 415.664L360.054 415.877L360.166 416.223L363.52 426.544L354.74 420.165L354.446 419.952L354.152 420.165L345.372 426.544L348.726 416.223L348.838 415.877L348.544 415.664L339.764 409.285H350.617H350.98L351.092 408.939L354.446 398.618Z" fill="#191919" stroke="#191919"/>
</svg>
