<svg xmlns="http://www.w3.org/2000/svg" xmlns:xlink="http://www.w3.org/1999/xlink" width="1005" height="220" viewBox="0 0 1005 220">
  <defs>
    <style>
      .cls-1 {
        clip-path: url(#clip-Drift-1005x220_black);
      }

      .cls-2 {
        fill: #fff;
      }
    </style>
    <clipPath id="clip-Drift-1005x220_black">
      <rect width="1005" height="220"/>
    </clipPath>
  </defs>
  <g id="Drift-1005x220_black" data-name="Drift-1005x220 – black" class="cls-1">
    <g id="Drift_Logo_LG_White" data-name="Drift Logo LG White" transform="translate(0 -4.5)">
      <path id="Path_31" data-name="Path 31" class="cls-2" d="M274.921,222.9,246.6,156.293H222.338V222.9H157.7V4.5H271.58c49.968,0,76.694,34.1,76.694,74.881,0,37.731-21.352,57.612-38.347,66.174L348.71,222.9Zm7.844-139.313c0-14.8-10.313-21.477-21.207-21.477H222.338v43.245h39.219C272.451,105.5,282.764,98.827,282.764,83.589Z" transform="translate(71.102)"/>
      <path id="Path_32" data-name="Path 32" class="cls-2" d="M404.5,222.9V4.5H567.04V62.112H469.429V91.426h95.432v57.612H469.429V222.9Z" transform="translate(182.399)"/>
      <path id="Path_33" data-name="Path 33" class="cls-2" d="M0,222.9V4.5H95.868c67.689,0,117.8,39.182,117.8,109.129,0,69.657-50.258,109.274-117.511,109.274ZM147.869,113.629c0-29.6-16.7-51.517-51.565-51.517H65.074V165.29H95.868C128.55,165.29,147.869,141.2,147.869,113.629Z"/>
      <path id="Path_34" data-name="Path 34" class="cls-2" d="M585.121,222.9V62.112H527.6V4.5H707.135V62.112H650.05V222.9Z" transform="translate(237.823)"/>
      <path id="Path_35" data-name="Path 35" class="cls-2" d="M439.937,4.6a12.8,12.8,0,0,1,2.469.29c3.2.726,4.648,3.628,3.05,6.24-.436.58-.726.871-1.162,1.451L389.679,74.692a12.192,12.192,0,0,0-1.453,1.741c-2.034,2.757,0,6.24,3.777,6.385h22.514c3.631.435,5.52,3.773,3.631,6.385a14,14,0,0,1-1.6,1.887L376.17,136.513a18.435,18.435,0,0,0-1.453,1.741c-1.743,2.757.291,5.95,3.922,6.24h14.526a5.037,5.037,0,0,1,4.793,2.612,3.857,3.857,0,0,1-1.162,4.644,7.287,7.287,0,0,1-1.162.871l-93.254,69.947a12.2,12.2,0,0,1-1.743,1.451,2.886,2.886,0,0,1-3.05,0,1.938,1.938,0,0,1-.871-2.177c.29-.726.726-1.741.726-1.741l25.71-52.968.726-1.6c1.743-3.483,0-6.385-3.777-6.821H300.928a11,11,0,0,1-2.179-.145c-3.2-.58-4.793-3.193-3.631-5.8l.872-1.741,31.956-53.4a8.885,8.885,0,0,1,.581-.871c1.743-3.193-.436-6.24-4.358-6.24H303.252c-2.76,0-4.648-1.451-4.939-3.483a5.172,5.172,0,0,1,.726-3.193l9.732-17.124L340.583,10.55l.726-1.306c1.6-2.9,4.358-4.354,8.134-4.354l90.494-.29Z" transform="translate(132.912 0.045)"/>
      <g id="Group_10" data-name="Group 10" transform="translate(961.516 4.645)">
        <path id="Path_36" data-name="Path 36" class="cls-2" d="M684.1,47.6a21.5,21.5,0,1,1,21.5-21.5A21.542,21.542,0,0,1,684.1,47.6Zm0-39.509A18.012,18.012,0,1,0,702.109,26.1,17.916,17.916,0,0,0,684.1,8.086Zm5.81,30.358-6.391-9.732h-3.922v9.732h-3.777V13.751h10.023c4.212,0,8.28,2.905,8.28,7.553a7.18,7.18,0,0,1-6.246,7.263l6.682,9.877h-4.648ZM685.841,16.8h-6.246v8.57h6.246a4.365,4.365,0,0,0,4.5-4.212A4.49,4.49,0,0,0,685.841,16.8Z" transform="translate(-662.6 -4.6)"/>
      </g>
    </g>
    <g id="Drift_Logo_LG_White-2" data-name="Drift Logo LG White" transform="translate(0 -4.5)">
      <path id="Path_31-2" data-name="Path 31" d="M274.921,222.9,246.6,156.293H222.338V222.9H157.7V4.5H271.58c49.968,0,76.694,34.1,76.694,74.881,0,37.731-21.352,57.612-38.347,66.174L348.71,222.9Zm7.844-139.313c0-14.8-10.313-21.477-21.207-21.477H222.338v43.245h39.219C272.451,105.5,282.764,98.827,282.764,83.589Z" transform="translate(71.102)"/>
      <path id="Path_32-2" data-name="Path 32" d="M404.5,222.9V4.5H567.04V62.112H469.429V91.426h95.432v57.612H469.429V222.9Z" transform="translate(182.399)"/>
      <path id="Path_33-2" data-name="Path 33" d="M0,222.9V4.5H95.868c67.689,0,117.8,39.182,117.8,109.129,0,69.657-50.258,109.274-117.511,109.274ZM147.869,113.629c0-29.6-16.7-51.517-51.565-51.517H65.074V165.29H95.868C128.55,165.29,147.869,141.2,147.869,113.629Z"/>
      <path id="Path_34-2" data-name="Path 34" d="M585.121,222.9V62.112H527.6V4.5H707.135V62.112H650.05V222.9Z" transform="translate(237.823)"/>
      <path id="Path_35-2" data-name="Path 35" d="M439.937,4.6a12.8,12.8,0,0,1,2.469.29c3.2.726,4.648,3.628,3.05,6.24-.436.58-.726.871-1.162,1.451L389.679,74.692a12.192,12.192,0,0,0-1.453,1.741c-2.034,2.757,0,6.24,3.777,6.385h22.514c3.631.435,5.52,3.773,3.631,6.385a14,14,0,0,1-1.6,1.887L376.17,136.513a18.435,18.435,0,0,0-1.453,1.741c-1.743,2.757.291,5.95,3.922,6.24h14.526a5.037,5.037,0,0,1,4.793,2.612,3.857,3.857,0,0,1-1.162,4.644,7.287,7.287,0,0,1-1.162.871l-93.254,69.947a12.2,12.2,0,0,1-1.743,1.451,2.886,2.886,0,0,1-3.05,0,1.938,1.938,0,0,1-.871-2.177c.29-.726.726-1.741.726-1.741l25.71-52.968.726-1.6c1.743-3.483,0-6.385-3.777-6.821H300.928a11,11,0,0,1-2.179-.145c-3.2-.58-4.793-3.193-3.631-5.8l.872-1.741,31.956-53.4a8.885,8.885,0,0,1,.581-.871c1.743-3.193-.436-6.24-4.358-6.24H303.252c-2.76,0-4.648-1.451-4.939-3.483a5.172,5.172,0,0,1,.726-3.193l9.732-17.124L340.583,10.55l.726-1.306c1.6-2.9,4.358-4.354,8.134-4.354l90.494-.29Z" transform="translate(132.912 0.045)"/>
      <g id="Group_10-2" data-name="Group 10" transform="translate(961.516 4.645)">
        <path id="Path_36-2" data-name="Path 36" d="M684.1,47.6a21.5,21.5,0,1,1,21.5-21.5A21.542,21.542,0,0,1,684.1,47.6Zm0-39.509A18.012,18.012,0,1,0,702.109,26.1,17.916,17.916,0,0,0,684.1,8.086Zm5.81,30.358-6.391-9.732h-3.922v9.732h-3.777V13.751h10.023c4.212,0,8.28,2.905,8.28,7.553a7.18,7.18,0,0,1-6.246,7.263l6.682,9.877h-4.648ZM685.841,16.8h-6.246v8.57h6.246a4.365,4.365,0,0,0,4.5-4.212A4.49,4.49,0,0,0,685.841,16.8Z" transform="translate(-662.6 -4.6)"/>
      </g>
    </g>
  </g>
</svg>
