<?xml version="1.0" encoding="UTF-8" standalone="no" ?>
<!DOCTYPE svg PUBLIC "-//W3C//DTD SVG 1.1//EN" "http://www.w3.org/Graphics/SVG/1.1/DTD/svg11.dtd">
<svg xmlns="http://www.w3.org/2000/svg" xmlns:xlink="http://www.w3.org/1999/xlink" version="1.1" width="400" height="400" viewBox="0 0 400 400" xml:space="preserve">
<desc>Created with Fabric.js 3.6.2</desc>
<defs>
</defs>
<g transform="matrix(3.53 0 0 3.53 206 195.47)" id="Layer_1"  >
<path style="stroke: none; stroke-width: 1; stroke-dasharray: none; stroke-linecap: butt; stroke-dashoffset: 0; stroke-linejoin: miter; stroke-miterlimit: 4; fill: rgb(0,0,0); fill-rule: nonzero; opacity: 1;"  transform=" translate(-30.05, -27.06)" d="M 30.071 27.101 v -0.077 c -0.016 0.026 -0.033 0.052 -0.05 0.077 H 30.071 z" stroke-linecap="round" />
</g>
<g transform="matrix(3.53 0 0 3.53 199.51 204.2)" id="Layer_1"  >
<path style="stroke: none; stroke-width: 1; stroke-dasharray: none; stroke-linecap: butt; stroke-dashoffset: 0; stroke-linejoin: miter; stroke-miterlimit: 4; fill: rgb(0,0,0); fill-rule: nonzero; opacity: 1;"  transform=" translate(-28.21, -29.54)" d="M 49.265 4.667 H 7.145 c -2.016 0 -3.651 1.596 -3.651 3.563 v 42.613 c 0 1.966 1.635 3.562 3.651 3.562 h 42.12 c 2.019 0 3.654 -1.597 3.654 -3.562 V 8.23 C 52.919 6.262 51.283 4.667 49.265 4.667 z M 18.475 46.304 h -7.465 V 23.845 h 7.465 V 46.304 z M 14.743 20.777 h -0.05 c -2.504 0 -4.124 -1.725 -4.124 -3.88 c 0 -2.203 1.67 -3.88 4.223 -3.88 c 2.554 0 4.125 1.677 4.175 3.88 C 18.967 19.052 17.345 20.777 14.743 20.777 z M 45.394 46.304 h -7.465 V 34.286 c 0 -3.018 -1.08 -5.078 -3.781 -5.078 c -2.062 0 -3.29 1.389 -3.831 2.731 c -0.197 0.479 -0.245 1.149 -0.245 1.821 v 12.543 h -7.465 c 0 0 0.098 -20.354 0 -22.459 h 7.465 v 3.179 c 0.992 -1.53 2.766 -3.709 6.729 -3.709 c 4.911 0 8.594 3.211 8.594 10.11 V 46.304 z" stroke-linecap="round" />
</g>
</svg>