<svg xmlns="http://www.w3.org/2000/svg" xmlns:xlink="http://www.w3.org/1999/xlink" width="1228" height="360" viewBox="0 0 1228 360">
  <defs>
    <style>
      .cls-1 {
        clip-path: url(#clip-MSF-1228x360_black);
      }

      .cls-2 {
        fill: none;
      }
    </style>
    <clipPath id="clip-MSF-1228x360_black">
      <rect width="1228" height="360"/>
    </clipPath>
  </defs>
  <g id="MSF-1228x360_black" data-name="MSF-1228x360 – black" class="cls-1">
    <g id="Group_15" data-name="Group 15" transform="translate(-0.254 0.6)">
      <path id="Path_70" data-name="Path 70" d="M384.129,242.524c-1.535-1.535.384-1.535,1.919-2.3,6.141-2.3,42.759-13.895,74.694-22.339s77.765-18.117,84.751-19.268c2.687-.768,3.838,0,5.374,2.3a73.469,73.469,0,0,1,6.525,19.269c1.535,9.212,0,18.885-.768,21.188-.768,1.919-3.454,1.919-9.6,3.838-3.838,1.152-19.652,4.99-26.177,6.909-7.293,2.3-27.329,8.061-34.7,10.364-8.828,3.071-20.8,6.909-20.8,6.909l-63.179,1.152s-.768-4.222-1.535-4.606a21.425,21.425,0,0,1-1.919-3.071,13.934,13.934,0,0,1-1.151-2.687,9.764,9.764,0,0,0-.768-2.687c-.384-.384-1.919-3.455-2.3-3.838a16.692,16.692,0,0,1-2.3-2.687,5.117,5.117,0,0,0-1.919-2.3,17.732,17.732,0,0,0-2.687-2.687c-1.151-.768-1.919-1.919-3.454-3.455" transform="translate(-89.055 -45.984)"/>
      <g id="Group_14" data-name="Group 14" transform="translate(0.254 0.4)">
        <path id="Path_71" data-name="Path 71" d="M129.1,309.771c3.454-1.919,11.208-6.141,12.359-6.909,1.535-.768,2.3-.768,2.3-.384,0,1.919,0,5.374,2.3,6.141.768.384,2.3-.768,2.687,0a7.161,7.161,0,0,0,1.152,1.535c.384.384,1.535,0,1.535.384.768.384,0,1.151.384,1.535.768.768,1.535-.384,2.3-.384,1.151.384,1.151,1.152,1.151,1.919-.384,1.152.384,2.3,2.3.384,1.152-.768,1.152-.384,1.919-.768a1.743,1.743,0,0,1,1.919,0c.384.384,1.152,1.152,1.535,1.152.768.384,1.535,0,2.3.384s.768,1.535,1.535,1.535,1.152-1.152,1.919-.768c1.152,1.151-1.152,3.071.384,3.454.768.384,1.152-.384,1.919-.384s1.152-.768,1.535-.768,1.152.768,1.535.384c.768-.384,1.152-.384,1.535-.768.768-.384,1.535-.384,1.919-.768s0-1.535,1.919-1.535c1.535.384-.384,1.919.384,2.3.384.384,1.919,0,2.3,0,.768-.384,1.919-1.535,1.919-2.3.384-.768,1.919-3.838,2.3-4.99.384-.768,1.919-4.222,2.687-5.374s3.838-5.758,3.838-6.525c.384-.768,1.535-1.919,1.535-2.3.384-.384.768-2.3,1.535-3.838a40.479,40.479,0,0,1,3.071-4.99c0-.384,1.919-4.222,2.3-5.374s2.687-3.838,3.071-4.99a34.22,34.22,0,0,1,1.919-3.838l1.535-2.3a10.859,10.859,0,0,1,1.151-2.3c.768-1.535,2.687-4.222,3.071-5.374a12.226,12.226,0,0,1,2.3-3.071l1.152-2.687.768-1.919s.768-2.3,1.151-3.071,1.535-2.3,1.919-3.071,1.535-4.606,1.919-5.758,3.455-6.141,3.455-6.909l3.455-6.909c.384-1.152.384-2.3.768-3.071a22.021,22.021,0,0,0,1.535-2.687,59.76,59.76,0,0,1,2.3-5.758c.384-.768.384-1.919,1.151-1.919s1.152.768,1.919,1.535c.384.768,1.535.768,2.3,1.152.768.768,2.687,3.071,3.071,3.454,0,.384,1.152.384,1.535.768s.384,1.151.768,1.535a11.664,11.664,0,0,1,2.687,1.919c.384.384.768,1.535,1.151,1.919s2.687,1.535,3.071,2.3a56.418,56.418,0,0,1,3.838,4.99,7.958,7.958,0,0,1,.768,2.3c.384.384,1.535,1.151,1.535,1.535s0,2.3.384,2.687,1.535,1.152,1.919,1.535a8.128,8.128,0,0,0,1.151,2.687l1.152,1.152c.384.384.384,2.3.768,2.687a16.69,16.69,0,0,1,1.535,2.687,11.947,11.947,0,0,0,1.535,2.3c0,.384.384,2.3.384,3.071a12.618,12.618,0,0,1,1.151,2.3,8.707,8.707,0,0,0,.384,1.535l.768,1.919a16,16,0,0,1,.768,2.3,2.876,2.876,0,0,0,.384,1.919c0,.384.768,1.535.768,1.919a18.713,18.713,0,0,0,1.152,2.687s-.384,1.919,0,2.3c0,.384,1.151,1.919,1.151,2.3a8.708,8.708,0,0,1-.384,1.535l.384.768s-.384,1.151,0,1.535V282.9a12.617,12.617,0,0,1,1.152,2.3c-.384.768-39.689,18.885-56.27,26.561-24.258,11.208-74.31,36.618-79.761,39.689-5.374,3.071-8.828,4.99-9.98,4.222-3.071-1.535-7.677-5.758-11.208-15.046a50.711,50.711,0,0,1-2.687-17.349c0-2.3,0-4.222,3.838-6.525,1.612-.768,8.6-4.683,12.052-6.986M59.784,171.514c0,.384,1.152.384,1.535.384s.768.768,1.152.768h1.152c.768.384.384,1.152.768,1.535s.384,1.535,1.152,1.535,1.152,0,1.535.768c0,.384-.384,1.535,0,2.3,1.152,1.919,0,6.909,1.152,7.293.768.384,3.838-.384,4.606-1.535,1.151-.768,2.3-2.3,3.071-2.687,1.535-.768,4.222-2.3,5.758-2.3,1.535-.384,1.919-2.3,3.455-2.687,1.152,0,.768-1.152,1.919-1.535.768-.384,2.687-1.152,3.071-.768s.768,1.152,1.535,1.152c1.152.384,2.3,0,2.3,1.152.384,1.535,2.687,0,2.687,0s3.071-1.919,4.222-2.687a49.954,49.954,0,0,0,4.606-2.3,34.219,34.219,0,0,1,3.838-1.919c42.375-20.42,75.462-31.551,105.938-43.143,48.517-18.5,130.964-39.689,146.778-43.527,1.535-.384,5.374-1.152,5.758-1.152.384-.384,1.152-.384,1.535-1.919s-.768-3.455-.768-4.222,1.535-3.838,1.919-4.99a1.711,1.711,0,0,0-1.152-1.535V66.8c-.384-1.152-2.3-2.3-2.687-3.071s0-3.838-.384-4.606a5.392,5.392,0,0,0-1.535-1.535s.384-.384,0-1.152a1.364,1.364,0,0,0-1.152-.768s.384-1.919,0-2.3c0-.768-1.151-1.152-1.151-1.152s-1.152-.768-1.152-1.535,0-1.152-.768-1.535c-.384-.384-2.3-.384-2.687-.384s-1.919-.384-2.687-.384-1.151.768-3.838,1.535a20.551,20.551,0,0,1-4.99,0c-1.151,0-2.3.768-3.838,1.152C329.7,54.521,271.2,71.486,228.057,87.684c-40.072,14.279-87.821,36.234-117.07,51.2C89.032,150.479,77.056,157,72.45,160.075c-2.687,1.535-5.374,3.455-5.758,4.222-.768,1.152-1.535,2.687-2.687,3.071-1.919.384-1.535,1.152-1.919,1.535a2.55,2.55,0,0,0-1.919,1.535c-.768-.077-.768.691-.384,1.075m181.784-26.178c-1.919-1.152-1.151-2.3,1.152-3.071,13.895-5.758,49.284-18.5,69.321-25.026,17.349-5.374,64.715-20.8,78.226-24.642,3.071-.768,4.606-.768,5.758.768a74.393,74.393,0,0,1,10.364,15.43,69.506,69.506,0,0,1,6.525,19.652c.768,3.838-1.152,4.606-3.071,5.374-14.663,6.525-51.2,22.339-66.25,29.632-14.662,6.909-41.608,20.036-50.82,24.642-3.838,1.919-3.071,2.687-5.758-.384-.768-.768-1.919-3.071-2.3-3.454s-5.374-4.99-6.141-5.758c-.384-.384-3.455-3.838-4.222-4.606-.768-.384-3.071-3.838-3.838-4.222s-1.919-1.152-2.687-1.535c-.384-.384-1.535-1.919-1.919-1.919-.384-.384-1.919-1.535-1.919-1.535l-1.919-1.919-1.535-1.535a6.328,6.328,0,0,0-2.3-1.919,16.693,16.693,0,0,1-2.687-2.3c-.384-.384-3.455-4.222-4.99-5.374-1.535-.768-4.99-3.455-5.758-3.838a7.548,7.548,0,0,0-3.224-2.457M218.845,74.864c-1.919,0-3.454,0-3.838-.384s0-.768-.384-1.152a1.167,1.167,0,0,0-1.535,0c-.384.384-.384.384-.768.384-.768.384-3.071-.768-3.838-.384s-2.687.384-3.071,0c-.768-.384-.768-1.919-1.919-2.3-.384-.384-2.3-1.152-2.687-2.3s-1.919-2.3-2.3-3.071a12.778,12.778,0,0,0-1.152-2.3c-.384-.384-.768-1.919-1.151-2.3l-1.152-1.152c-.384-.384-.768-1.919-1.152-2.3,0-.384-.768-.768-.768-1.152-.384-.384-.384-.768-.384-1.535a8.39,8.39,0,0,1-1.152-1.919c0-.384-.384-3.838-.384-6.141a22.1,22.1,0,0,1,.384-5.758c.384-1.152.768-1.919,1.152-3.071s1.535-4.606,1.919-6.141,1.152-4.606,1.535-5.758,1.535-3.838,1.919-4.606a38.935,38.935,0,0,1,3.455-4.99,40.814,40.814,0,0,1,5.758-5.758,23.3,23.3,0,0,1,3.838-2.687,33.2,33.2,0,0,1,3.838-2.687,3.825,3.825,0,0,1,1.535-.384l.768-.768a4.751,4.751,0,0,1,1.152-.768c.384-.384,1.535-.384,1.535-.384s1.535-1.152,2.687-.768c.768,0,1.152-1.152,1.535-1.152C224.986.4,227.289.4,227.289.4a2.255,2.255,0,0,0,1.919.768,6.271,6.271,0,0,0,2.687,0c.768,0,1.152.768,1.535,1.152.384,0,5.374,4.99,6.141,6.141A2.308,2.308,0,0,1,239.956,10a3.865,3.865,0,0,1,1.535,2.3c0,.768,1.151,1.152,1.151,2.687,0,.768,1.535,1.535,2.3,3.455,0,.384.384,2.3.384,2.3,0,.384.384.384.768,1.152a4.869,4.869,0,0,1,.384,2.3c0,.768,1.152,3.455,1.152,5.374a19.448,19.448,0,0,1-.768,4.99c-.384,1.152,0,3.838-.384,4.99a23.6,23.6,0,0,0-1.151,4.222,33.2,33.2,0,0,1-2.687,6.525c-.384.384-1.535,3.071-2.3,3.838-.384.768-4.99,6.525-5.758,7.677-.768.768-2.687,2.3-3.071,2.687a22.015,22.015,0,0,1-1.535,2.687c-.768,1.535-1.919.384-2.687,1.152-.768,1.152-2.3,1.535-2.687,2.3a8.067,8.067,0,0,1-1.919,2.687c-.384.768-2.687,1.535-3.838,1.535M92.487,260.1s-18.5,6.141-25.794,8.828c-6.909,2.3-14.662,4.99-19.652,7.293C40.9,278.911,29.691,283.133,27,284.284c-4.222,1.535-5.758.768-6.909-1.919a72.182,72.182,0,0,1-5.374-13.511A57.743,57.743,0,0,1,12.8,256.111a8.981,8.981,0,0,1,3.838-6.525c2.3-1.152,7.677-4.606,11.976-6.909,8.061-4.606,36.618-20.036,53.507-28.481,17.733-9.212,46.214-23.107,61.26-30.4s40.072-19.269,43.143-20.8c3.071-1.152,6.141-2.687,7.677-2.687s.768.768.768,1.152-.384.768-.768,1.919a10.627,10.627,0,0,1-.384,3.455c-.384,1.152-1.535,2.3-1.535,3.071s-.384,3.455-1.152,4.222a29.02,29.02,0,0,0-3.838,8.444,41.391,41.391,0,0,1-2.3,7.293l-2.687,5.374c0,1.152-1.535,3.838-1.919,4.99s-2.687,5.374-3.071,6.141-1.919,5.758-2.3,6.525-1.919,3.071-1.919,3.071l-.768,3.071a27.849,27.849,0,0,0-1.919,3.455,36.142,36.142,0,0,1-2.3,6.909,89.935,89.935,0,0,0-4.99,11.976c-.768,2.687-1.919,6.909-2.3,7.677s-2.3,4.222-2.687,5.374-1.919,6.909-2.687,7.677c-.384,1.151-1.919,4.222-1.919,5.374s-1.152,3.454-1.919,5.758c-.768,1.919-1.919,5.758-2.687,6.909a22.792,22.792,0,0,1-1.535,3.071c0,.768-.384,2.687-.384,3.454a8.708,8.708,0,0,1-.384,1.535c-.768.384-51.2,21.955-58.573,25.41-7.293,3.455-58.189,27.713-61.644,29.248-3.071,1.535-7.293,4.606-10.364,2.687C11.8,342.858,7.966,337.1,5.279,331.65a48.926,48.926,0,0,1-4.99-16.582c-.384-6.525,2.3-7.677,11.592-13.127,4.606-2.687,41.608-21.955,53.123-28.1,3.608-1,27.483-13.741,27.483-13.741" transform="translate(-0.254 -0.4)"/>
      </g>
      <path id="Path_72" data-name="Path 72" d="M867.081,306.252,859.4,337.419h-.384l-7.293-31.167H836.681l-11.976,48.133h10.747l8.061-30.784,7.677,30.784h14.662l12.359-48.133M799.679,330.51l8.444-13.895.768,13.895Zm3.455-24.258c-10.364,16.2-20.8,32.319-31.551,47.749h13.895l8.444-13.511h14.662l.768,13.895h13.511c-1.535-15.814-3.454-32.319-4.606-47.749H803.211Zm90.892,13.127c.768-2.687,4.222-3.454,6.141-3.454a14.6,14.6,0,0,1,8.444,2.3s2.3-9.6,2.3-9.98c-3.838-2.3-8.061-2.687-11.592-2.687-11.131,0-16.965,6.525-18.117,12.359-2.3,11.131,11.131,17.349,9.6,22.339-1.152,3.838-4.606,3.838-6.909,3.838a22.8,22.8,0,0,1-9.98-2.687l-2.687,11.208a46.225,46.225,0,0,0,12.743,2.3c13.127,0,17.349-5.758,18.5-12.359,3.071-10.9-9.98-17.042-8.444-23.184m-127.894,0c.768-2.687,4.222-3.454,6.141-3.454a14.6,14.6,0,0,1,8.444,2.3s3.071-9.212,3.071-9.6a22.026,22.026,0,0,0-11.976-3.071c-11.131,0-16.966,6.525-18.117,12.359-2.3,11.131,11.131,17.349,9.6,22.339-1.151,3.838-4.606,3.838-6.909,3.838a22.8,22.8,0,0,1-9.98-2.687l-2.687,11.208a46.223,46.223,0,0,0,12.743,2.3c13.127,0,17.349-5.758,18.5-12.359,2.764-10.9-10.747-17.042-8.828-23.184m326.26,18.04-7.293-31.167h-15.046L1057.693,354h11.131l7.677-30.4h.384l7.677,30.4h14.662l12.359-47.749h-11.208M951.755,316.615h18.5l2.3-10.364H941.775L929.8,354h12.359l4.99-18.885h15.43l2.3-9.98H949.836m201.82-18.885h-35.85l-2.687,10.364h11.592l-9.6,37.385h12.743l9.6-37.385h11.592m6.909-10.364L1143.6,354h12.743l12.359-47.749m28.4,28.864,2.687-9.98h-15.814l1.919-8.444h20.036l2.687-10.364h-32.7l-11.976,47.749h32.319l2.687-9.98h-20.036l2.3-8.828m96.8-.154,2.3-9.98h-16.2l2.3-8.444h20.036l2.687-10.364h-32.7l-12.359,47.749h32.7l2.687-9.98h-20.036l2.3-8.828m-215.178-5.143c-1.919,7.677-7.677,14.279-15.046,14.279-7.677,0-9.6-6.909-7.677-14.279s7.293-14.279,15.046-14.279c7.293,0,9.6,6.6,7.677,14.279m-5.067-24.642c-14.279,0-26.177,8.828-30.4,24.642s3.455,24.642,17.733,24.642c13.511,0,25.41-7.677,30.016-23.491,4.606-16.582-3.071-25.794-17.349-25.794m262.7,13.895c.768-2.3,4.222-3.454,6.141-3.454a14.6,14.6,0,0,1,8.444,2.3s2.3-9.6,2.3-9.98c-3.838-2.3-8.061-2.687-11.592-2.687-11.131,0-16.966,6.525-18.117,12.359-1.919,11.131,11.208,17.349,9.6,22.339-1.151,3.838-4.606,3.838-6.909,3.838a22.8,22.8,0,0,1-9.98-2.687l-2.687,11.208a46.225,46.225,0,0,0,12.743,2.3c13.127,0,17.349-5.758,18.5-12.359,3.147-11.285-10.364-17.426-8.444-23.184M997.661,333.2c6.525-1.152,11.131-6.909,12.743-12.359,2.3-9.6-.384-14.663-10.747-14.663H978.009L965.65,353.924h11.976l9.6-37.769h6.141c1.919,0,5.758,0,4.222,4.99-.768,3.838-3.838,6.141-9.212,6.141h-4.606l4.222,26.561H1001.5c.768.154-3.454-19.883-3.838-20.65m236.826,0c6.525-1.152,11.131-6.909,12.743-12.359,2.3-9.6-.384-14.663-10.747-14.663h-21.572l-12.359,47.749h11.976l9.6-37.769h6.141c1.919,0,5.757,0,4.222,4.99-1.151,3.838-3.838,6.141-9.212,6.141h-4.222l4.222,26.561h13.511c.307.154-3.915-19.883-4.3-20.65M573.217,354l2.3-9.98H555.867l1.919-8.828h16.582l2.3-9.98h-16.2l2.3-8.444h20.036l2.3-10.364H552.8L540.437,354m-51.587,0,2.3-9.98H471.5l1.919-8.828h16.2l2.687-9.98h-16.2l2.3-8.444h19.652l2.687-10.364H468.43L456.07,354.154m144.092.614a90.969,90.969,0,0,0,12.359-1.535l3.071-11.131a41.981,41.981,0,0,1-12.743,1.919c-7.677,0-9.6-6.909-7.677-14.279,1.535-6.525,7.293-14.279,17.349-14.279a26.385,26.385,0,0,1,9.212,1.919l2.687-10.747c-3.071-1.152-7.677-1.535-11.131-1.535-14.279,0-26.561,8.828-30.4,24.642-4.3,16.2,2.994,25.026,17.273,25.026M631.329,354l12.359-47.749H630.945L618.586,354M419.145,320.146h.384l-.768,33.931h10.747l16.965-34.315-8.444,34.315h10.364l12.359-47.749H443.787l-14.662,29.939.768-30.016H412.159L399.8,354h10.747m239.283,0,8.061-30.4,7.677,30.4H680.23l12.359-47.749H681.458l-7.677,31.167H673.4L666.1,306.251H650.982L639.006,354m-109.7-23.875c-1.919,6.909-6.909,13.895-13.895,13.895h-5.374l6.909-27.329h6.141c6.986-.077,8.521,4.606,6.218,13.434m12.667,0c4.99-20.036-5.758-23.875-11.592-23.875H507.658L495.3,354h20.036c13.972,0,22.8-9.98,26.638-23.875M708.4,319.379c.768-2.687,4.222-3.454,6.141-3.454a14.6,14.6,0,0,1,8.444,2.3s2.3-9.6,2.3-9.98a21.473,21.473,0,0,0-11.131-2.687c-11.131,0-16.965,6.525-18.117,12.359-1.919,11.131,11.131,17.349,9.6,22.339-1.151,3.838-4.606,3.838-6.909,3.838a22.8,22.8,0,0,1-9.98-2.687l-2.687,11.208a46.224,46.224,0,0,0,12.743,2.3c13.127,0,17.349-5.758,18.5-12.359,2.61-10.9-10.9-17.042-8.905-23.184" transform="translate(-92.826 -70.791)"/>
      <path id="Path_73" data-name="Path 73" class="cls-2" d="M392.3,386.4h921.281" transform="translate(-91.084 -89.679)"/>
      <path id="Path_74" data-name="Path 74" d="M662.232,415.295c.768-2.687,4.222-3.454,6.141-3.454a14.6,14.6,0,0,1,8.444,2.3s2.3-9.6,2.3-9.98a21.473,21.473,0,0,0-11.131-2.687c-11.131,0-16.966,6.525-18.117,12.359-2.3,11.131,11.131,17.349,9.6,22.339-1.152,3.838-4.606,3.838-6.909,3.838a22.8,22.8,0,0,1-9.98-2.687l-2.687,11.208a46.223,46.223,0,0,0,12.743,2.3c13.127,0,17.349-5.758,18.5-12.359,2.61-10.9-10.44-17.042-8.9-23.184M557.061,402.552H521.595l-2.687,9.98H530.5L520.9,450.3h12.743l9.6-37.769h11.592M630.22,429.19c6.525-1.151,11.131-6.909,12.743-12.359,2.3-9.6-.384-14.662-10.747-14.662H611.028l-12.359,47.749h11.976l9.6-37.769h6.141c1.919,0,5.758,0,4.222,4.99-1.151,3.838-3.838,6.141-9.212,6.141h-4.606l4.222,26.561h13.511c0,.461-4.3-19.5-4.3-20.65M493.114,451.145a74.25,74.25,0,0,0,11.976-1.152l3.071-11.208a40.03,40.03,0,0,1-12.359,1.535c-7.677,0-9.6-6.909-7.677-14.279,1.535-6.525,7.293-14.279,17.349-14.279a26.385,26.385,0,0,1,9.212,1.919l2.687-10.747c-3.071-1.151-7.677-1.535-11.131-1.535-14.279,0-26.561,8.828-30.4,24.642-4.683,16.2,3.071,25.1,17.273,25.1m-84.751-24.719c-1.919,6.909-6.909,13.895-13.895,13.895h-4.606l6.909-27.329h5.374c6.986-.384,8.521,4.606,6.218,13.434m12.359,0c4.99-20.036-5.758-23.875-11.592-23.875H387.559L375.2,450.3h18.885c13.895,0,23.184-9.98,26.638-23.874m33.47-25.026c-13.895,0-25.794,8.828-29.632,24.642s3.455,24.642,17.349,24.642c13.127,0,25.026-7.677,29.248-23.491C475.765,411.073,468.088,401.4,454.193,401.4Zm5.451,25.41c-2.3,7.677-8.444,13.895-15.814,13.511-7.677-.384-9.212-7.293-6.909-14.662s8.061-13.895,15.814-13.511C460.027,412.608,461.947,419.133,459.644,426.81ZM582.471,401.4c-13.895,0-25.794,8.828-29.632,24.642s3.455,24.642,17.349,24.642c13.127,0,25.026-7.677,29.248-23.491C604.042,411.073,596.366,401.4,582.471,401.4Zm5.758,25.41c-2.3,7.677-8.444,13.895-15.814,13.511-7.677-.384-9.212-7.293-6.909-14.662,2.3-7.293,8.06-13.895,15.814-13.511C588.228,412.608,590.224,419.133,588.228,426.81Zm178.714-24.258L754.583,450.3h12.743L779.3,402.552m221.089,0H964.924l-2.687,9.98h11.592l-9.6,37.769h12.743l9.212-37.769H997.78m-178.406-9.98H783.907l-2.687,9.98h11.592l-9.6,37.769H795.96l9.6-37.769h11.131m115.918-9.98L925.7,429.881c-1.919,6.909-1.151,11.208,4.606,11.208s8.444-4.222,10.364-11.208l6.909-27.329H960.7l-8.444,32.319c-3.071,11.592-12.743,16.2-24.642,16.2s-19.268-4.606-16.2-16.2l8.444-32.319Zm-170.269,0-20.8,47.749H727.637l2.3-29.632h-.384L718.425,450.3H705.3l1.152-47.749H717.2L715.662,436.1l12.359-33.547h12.359L737.694,436.1h.384l13.895-33.547m72.007,0h11.976l-4.606,17.733h15.43l4.606-17.733h11.976L851,450.3H839.026l4.99-20.036h-15.43L823.6,450.3H811.62m79.761-48.9c-13.895,0-25.794,8.828-29.632,24.642s3.455,24.642,17.349,24.642c13.127,0,25.026-7.677,29.248-23.491,4.606-16.121-3.071-25.794-16.966-25.794Zm5.374,25.41c-2.3,7.677-8.444,13.895-15.814,13.511-7.677-.384-9.212-7.293-6.909-14.662,2.3-7.293,8.061-13.895,15.814-13.511C897.139,412.608,899.058,419.133,896.755,426.81Zm284.652-.384c-1.919,6.909-6.909,13.895-13.895,13.895h-4.606l6.909-27.329h5.373c6.986-.384,8.521,4.606,6.218,13.434m12.744,0c4.99-20.036-5.758-23.875-11.592-23.875h-21.571L1148.628,450.3h18.885c13.895,0,22.723-9.98,26.638-23.874m97.417-11.131c.768-2.687,4.222-3.454,6.141-3.454a14.6,14.6,0,0,1,8.445,2.3s2.3-9.6,2.3-9.98a21.473,21.473,0,0,0-11.131-2.687c-11.208,0-16.966,6.525-18.117,12.359-2.3,11.131,11.131,17.349,9.6,22.339-1.151,3.838-4.606,3.838-6.909,3.838a22.8,22.8,0,0,1-9.979-2.687l-2.687,11.208a46.223,46.223,0,0,0,12.743,2.3c13.127,0,17.349-5.758,18.5-12.359,2.994-10.9-10.44-17.042-8.905-23.184M1262.7,429.19c6.525-1.151,11.131-6.909,12.743-12.359,2.3-9.6-.384-14.662-10.747-14.662h-21.188l-12.359,47.749h11.976l9.6-37.769h6.142c1.919,0,5.757,0,4.222,4.99-1.152,3.838-3.839,6.141-9.212,6.141h-4.606l4.222,26.561H1267c.307.461-4.3-19.5-4.3-20.65m-124.055,0c6.525-1.151,11.131-6.909,12.743-12.359,2.3-9.6-.384-14.662-10.747-14.662h-21.188L1107.1,449.917h11.976l9.6-37.769h6.141c1.919,0,5.757,0,4.222,4.99-1.151,3.838-3.838,6.141-9.212,6.141h-4.606l4.222,26.561h13.511c.307.461-3.915-19.5-4.3-20.65m85.9,21.111,2.3-10.364H1207.2l1.919-8.444H1225.7l2.3-10.363h-16.2l2.3-8.444h20.036l2.3-9.98H1204.13l-12.359,47.749m-154.762-29.018h2.3c3.454,0,7.677.384,9.212-5.758,1.151-3.838-2.687-3.838-5.757-3.838h-3.454Zm-5.067,19.268h4.222c3.838,0,7.293,0,8.444-5.374,1.152-4.99-2.3-4.99-5.374-4.99h-4.606Zm-1.919-38.153h24.258c3.454,0,8.444,3.071,6.141,11.592-1.535,5.758-4.606,9.98-10.364,11.592,4.99.768,7.293,4.99,5.758,11.592-2.687,10.364-9.212,12.743-18.117,12.743h-20.036l12.36-47.519ZM1090.9,401.4c-13.895,0-25.794,8.828-29.632,24.642s3.454,24.642,17.349,24.642c13.127,0,25.026-7.677,29.248-23.491C1112.47,411.073,1105.177,401.4,1090.9,401.4Zm5.757,25.41c-2.3,7.677-8.444,13.895-15.814,13.511-7.677-.384-9.212-7.293-6.909-14.662s8.061-13.895,15.814-13.511C1097.04,412.608,1098.575,419.133,1096.656,426.81Z" transform="translate(-87.111 -93.164)"/>
    </g>
  </g>
</svg>
