<svg id="EXPANDED" xmlns="http://www.w3.org/2000/svg" viewBox="0 0 432 432"><path d="M61.5,29.43v369h309v-369Zm300,9V60.1H70.5V38.43Zm0,30.67v81.62H70.5V69.1ZM221.05,389.43V367.67H331.5v21.76Zm119.45,0V358.67H212.05v30.76H70.5V159.72h291V389.43Z"/><path d="M92.6,219.42H340.5V179.65H92.6Zm9-30.77H331.5v21.77H101.6Z"/><path d="M92.6,338.43H340.5V298.67H92.6Zm9-30.76H331.5v21.76H101.6Z"/><rect x="96" y="240.32" width="240" height="9"/><rect x="96" y="270.5" width="240" height="9"/><rect x="96" y="359.43" width="90" height="9"/></svg>