<svg id="EXPANDED" xmlns="http://www.w3.org/2000/svg" viewBox="0 0 432 432"><path d="M229,131A100,100,0,1,0,329,231,100.07,100.07,0,0,0,229,131ZM229,322a91,91,0,1,1,91-91A91.06,91.06,0,0,1,229,322Z"/><path d="M241.89,173.41a41.6,41.6,0,0,0-31.27,14A29.46,29.46,0,0,0,175,211.46,29.4,29.4,0,0,0,179.14,270h99.73a29.4,29.4,0,0,0,4.76-58.42A41.94,41.94,0,0,0,241.89,173.41Zm57.42,67.16A20.45,20.45,0,0,1,278.87,261H179.14a20.41,20.41,0,1,1,0-40.81h4.43l.07-4.43a20.42,20.42,0,0,1,27.09-18.94l3.07,1,2-2.57a32.91,32.91,0,0,1,59,20l-.05,4.85,4.47.07A20.51,20.51,0,0,1,299.31,240.57Z"/><path d="M396.12,260.37V197.92H366.36a139.16,139.16,0,0,0-16.81-41.74l21-21.65-43-44.25-21,21.66a159.26,159.26,0,0,0-44.74-19.16V70.5h31.69v-39h-129v39h29.22V92.62A140.62,140.62,0,0,0,147,113.41L131.44,97.83,105.8,123.46,120,137.62c-.78.9-1.54,1.81-2.3,2.72a140.42,140.42,0,0,0-18.88,30.19H73.9v9H95a141.31,141.31,0,0,0-5.55,18.26H63v9H87.67a140.77,140.77,0,0,0-1.79,18.26H35.23v9H85.88a140.77,140.77,0,0,0,1.79,18.26H63v9H89.45A141.31,141.31,0,0,0,95,279.57H73.9v9H98.79a139.85,139.85,0,0,0,18.48,29.7,141.33,141.33,0,0,0,75.23,47.91V400.5h69.85V363.67c16.76-3.88,32.49-10.06,44.2-17.33L327.6,368l43-44.26-21-21.65a139.16,139.16,0,0,0,16.81-41.74ZM173.51,61.5v-21h111v21Zm-55,62,12.91-12.91,8.25,8.25A141.7,141.7,0,0,0,126.06,131ZM358.29,255a130,130,0,0,1-18.21,45.29l-1.93,3L358,323.76,327.6,355.1l-19.81-20.4-3.13,2.13c-11.61,7.94-29.46,15-47.73,18.83l-3.58.75V391.5H201.5V359l-3.53-.78a131.83,131.83,0,0,1,1.19-257.61l3.57-.76V70.5h50.09V100l3.57.76c15.57,3.27,35,11.58,48.27,20.68l3.13,2.13,19.81-20.4L358,134.53,338.15,155l1.93,3a129.86,129.86,0,0,1,18.21,45.28l.72,3.63h28.11v44.45H359Z"/></svg>