<?xml version="1.0" encoding="UTF-8" standalone="no" ?>
<!DOCTYPE svg PUBLIC "-//W3C//DTD SVG 1.1//EN" "http://www.w3.org/Graphics/SVG/1.1/DTD/svg11.dtd">
<svg xmlns="http://www.w3.org/2000/svg" xmlns:xlink="http://www.w3.org/1999/xlink" version="1.1" width="400" height="400" viewBox="0 0 400 400" xml:space="preserve">
<desc>Created with Fabric.js 3.6.2</desc>
<defs>
</defs>
<g transform="matrix(0.39 0 0 0.39 200 200)" id="Dark_Blue"  >
<path style="stroke: none; stroke-width: 1; stroke-dasharray: none; stroke-linecap: butt; stroke-dashoffset: 0; stroke-linejoin: round; stroke-miterlimit: 2; fill: rgb(0,0,0); fill-rule: nonzero; opacity: 1;"  transform=" translate(-256, -256)" d="M 448 512 l -384 0 c -35.328 0 -64 -28.672 -64 -64 l 0 -384 c 0 -35.328 28.672 -64 64 -64 l 384 0 c 35.328 0 64 28.672 64 64 l 0 384 c 0 35.328 -28.672 64 -64 64 Z m -251.392 -125.952 c 120.704 0 186.752 -100.096 186.752 -186.752 c 0 -2.816 0 -5.632 -0.128 -8.448 c 12.8 -9.216 23.936 -20.864 32.768 -34.048 c -11.776 5.248 -24.448 8.704 -37.76 10.368 c 13.568 -8.064 23.936 -20.992 28.928 -36.352 c -12.672 7.552 -26.752 12.928 -41.728 15.872 c -12.032 -12.8 -29.056 -20.736 -47.872 -20.736 c -36.224 0 -65.664 29.44 -65.664 65.664 c 0 5.12 0.64 10.112 1.664 14.976 c -54.528 -2.688 -102.912 -28.928 -135.296 -68.608 c -5.632 9.728 -8.832 20.992 -8.832 33.024 c 0 22.784 11.648 42.88 29.184 54.656 c -10.752 -0.384 -20.864 -3.328 -29.696 -8.192 l 0 0.896 c 0 31.744 22.656 58.368 52.608 64.384 c -5.504 1.536 -11.264 2.304 -17.28 2.304 c -4.224 0 -8.32 -0.384 -12.288 -1.152 c 8.32 26.112 32.64 45.056 61.312 45.568 c -22.528 17.664 -50.816 28.16 -81.536 28.16 c -5.248 0 -10.496 -0.256 -15.616 -0.896 c 28.928 18.432 63.488 29.312 100.48 29.312 Z" stroke-linecap="round" />
</g>
</svg>