<?xml version="1.0" encoding="UTF-8" standalone="no" ?>
<!DOCTYPE svg PUBLIC "-//W3C//DTD SVG 1.1//EN" "http://www.w3.org/Graphics/SVG/1.1/DTD/svg11.dtd">
<svg xmlns="http://www.w3.org/2000/svg" xmlns:xlink="http://www.w3.org/1999/xlink" version="1.1" width="400" height="400" viewBox="0 0 400 400" xml:space="preserve">
<desc>Created with Fabric.js 3.6.2</desc>
<defs>
</defs>
<g transform="matrix(9.99 0 0 9.99 200 200)"  >
<path style="stroke: none; stroke-width: 1; stroke-dasharray: none; stroke-linecap: butt; stroke-dashoffset: 0; stroke-linejoin: miter; stroke-miterlimit: 4; fill: rgb(0,0,0); fill-rule: nonzero; opacity: 1;"  transform=" translate(-11.99, -12.01)" d="M 21.593 7.203 a 2.506 2.506 0 0 0 -1.762 -1.766 C 18.265 5.007 12 5 12 5 s -6.264 -0.007 -7.831 0.404 a 2.56 2.56 0 0 0 -1.766 1.778 c -0.413 1.566 -0.417 4.814 -0.417 4.814 s -0.004 3.264 0.406 4.814 c 0.23 0.857 0.905 1.534 1.763 1.765 c 1.582 0.43 7.83 0.437 7.83 0.437 s 6.265 0.007 7.831 -0.403 a 2.515 2.515 0 0 0 1.767 -1.763 c 0.414 -1.565 0.417 -4.812 0.417 -4.812 s 0.02 -3.265 -0.407 -4.831 z M 9.996 15.005 l 0.005 -6 l 5.207 3.005 l -5.212 2.995 z" stroke-linecap="round" />
</g>
</svg>